<svg width="25" height="25" viewBox="0 0 25 25" fill="none" xmlns="http://www.w3.org/2000/svg">
<path d="M14.2275 12.7567C14.271 12.7805 14.3071 12.8157 14.332 12.8586C14.3568 12.9015 14.3694 12.9504 14.3683 13C14.3709 13.0423 14.3631 13.0845 14.3456 13.1232C14.3282 13.1618 14.3017 13.1956 14.2683 13.2217L9.79167 15.4617C9.74903 15.4852 9.701 15.4973 9.65229 15.4967C9.60358 15.4961 9.55587 15.4828 9.51384 15.4582C9.47181 15.4335 9.43692 15.3984 9.41257 15.3562C9.38823 15.314 9.37528 15.2662 9.375 15.2175V10.7825C9.37406 10.7331 9.38659 10.6843 9.41125 10.6414C9.43592 10.5986 9.47178 10.5632 9.515 10.5392C9.55478 10.5162 9.59991 10.5041 9.64583 10.5042C9.71303 10.5061 9.77853 10.5257 9.83583 10.5608L14.2275 12.7567ZM21.875 7.16667V18.8333C21.8737 19.938 21.4343 20.997 20.6532 21.7782C19.872 22.5593 18.813 22.9987 17.7083 23H6.04167C4.937 22.9987 3.87796 22.5593 3.09685 21.7782C2.31573 20.997 1.87632 19.938 1.875 18.8333L1.875 7.16667C1.87632 6.062 2.31573 5.00296 3.09685 4.22185C3.87796 3.44073 4.937 3.00132 6.04167 3L17.7083 3C18.813 3.00132 19.872 3.44073 20.6532 4.22185C21.4343 5.00296 21.8737 6.062 21.875 7.16667ZM16.035 13C16.0353 12.6489 15.9405 12.3042 15.7606 12.0027C15.5807 11.7012 15.3224 11.454 15.0133 11.2875L10.615 9.09167C10.3187 8.9217 9.98301 8.83263 9.64146 8.83339C9.29992 8.83416 8.96458 8.92474 8.6691 9.09603C8.37361 9.26733 8.12837 9.51332 7.95798 9.80933C7.7876 10.1053 7.69805 10.441 7.69833 10.7825V15.2175C7.69633 15.559 7.78509 15.8949 7.95553 16.1908C8.12596 16.4867 8.37195 16.732 8.66833 16.9017C8.96834 17.0768 9.30927 17.1697 9.65667 17.1708C9.97805 17.1723 10.2942 17.0892 10.5733 16.93L15.0533 14.6908C15.3529 14.5221 15.6019 14.2764 15.7745 13.9791C15.9471 13.6818 16.037 13.3438 16.035 13Z" fill="#656BC0"/>
</svg>
