<svg width="25" height="25" viewBox="0 0 25 25" fill="none" xmlns="http://www.w3.org/2000/svg">
<path d="M6.83816 15.9869C5.84228 15.1752 5.08266 14.1638 4.62359 13.0382C4.16452 11.9126 4.01951 10.7059 4.20082 9.52042C4.38011 8.31832 4.88706 7.17251 5.67822 6.1812C6.46937 5.18988 7.52115 4.38262 8.74339 3.82861C9.96564 3.2746 11.3219 2.99036 12.6959 3.00025C14.07 3.01014 15.4208 3.31387 16.6326 3.88541C17.8445 4.45695 18.8812 5.27924 19.6539 6.28182C20.4266 7.2844 20.9123 8.43735 21.0693 9.64187C21.2264 10.8464 21.05 12.0665 20.5555 13.1978C20.0609 14.329 19.2629 15.3375 18.2298 16.1369C17.5646 16.6416 17.0481 17.2812 16.7246 18.0008H13.5727V12.015C14.1231 11.8433 14.6 11.5257 14.938 11.1058C15.2761 10.6858 15.4588 10.1839 15.4612 9.66873C15.4612 9.44775 15.3617 9.23582 15.1846 9.07956C15.0076 8.92331 14.7674 8.83552 14.517 8.83552C14.2665 8.83552 14.0263 8.92331 13.8493 9.07956C13.6722 9.23582 13.5727 9.44775 13.5727 9.66873C13.5727 9.88971 13.4732 10.1016 13.2961 10.2579C13.119 10.4141 12.8789 10.5019 12.6284 10.5019C12.378 10.5019 12.1378 10.4141 11.9607 10.2579C11.7836 10.1016 11.6841 9.88971 11.6841 9.66873C11.6841 9.44775 11.5847 9.23582 11.4076 9.07956C11.2305 8.92331 10.9903 8.83552 10.7399 8.83552C10.4894 8.83552 10.2493 8.92331 10.0722 9.07956C9.8951 9.23582 9.79561 9.44775 9.79561 9.66873C9.79803 10.1839 9.98077 10.6858 10.3188 11.1058C10.6569 11.5257 11.1337 11.8433 11.6841 12.015V18.0008H8.4387C8.0777 17.2347 7.53147 16.5474 6.83816 15.9869ZM8.85134 19.6672V19.9255C8.85234 20.7406 9.21976 21.5221 9.87299 22.0985C10.5262 22.6749 11.4119 22.9991 12.3357 23H12.9211C13.8449 22.9991 14.7306 22.6749 15.3838 22.0985C16.0371 21.5221 16.4045 20.7406 16.4055 19.9255V19.6672H8.85134Z" fill="#E03A6A"/>
</svg>
