<svg width="25" height="25" viewBox="0 0 25 25" fill="none" xmlns="http://www.w3.org/2000/svg">
<path d="M2.375 12.3707H8.7321C8.36546 12.1818 8.0266 11.9265 7.72802 11.6141C7.44755 11.322 7.2166 10.9708 7.04724 10.5789C6.88253 10.1927 6.79799 9.7666 6.80049 9.33508C6.80049 8.81702 6.89984 8.35577 7.09853 7.95132C7.29106 7.55332 7.57174 7.22335 7.91104 6.9961C8.25454 6.76373 8.64467 6.64755 9.08143 6.64755C9.46146 6.64755 9.82309 6.7354 10.1663 6.91112C10.5163 7.0927 10.8349 7.34741 11.1067 7.66276C11.3989 8.00167 11.6405 8.39534 11.8217 8.82747V4H12.9369V8.82747C13.1229 8.39636 13.3671 8.00309 13.66 7.66276C13.9318 7.34741 14.2504 7.0927 14.6004 6.91112C14.9395 6.73589 15.3064 6.64609 15.6771 6.64755C16.1139 6.64755 16.504 6.76373 16.8475 6.9961C17.1868 7.22335 17.4675 7.55332 17.66 7.95132C17.8587 8.35607 17.9581 8.81733 17.9581 9.33508C17.9581 9.77952 17.8772 10.1941 17.7156 10.5789C17.549 10.9716 17.3192 11.3231 17.0387 11.6141C16.7379 11.928 16.396 12.1835 16.0261 12.3707H22.375V13.555H13.8217C13.9522 13.8737 14.1481 14.2171 14.4092 14.5852C14.6806 14.9663 14.9796 15.3193 15.3029 15.6404C15.6205 15.9613 15.9656 16.243 16.3326 16.4811C16.6844 16.7071 17.0163 16.8398 17.3282 16.8792C17.5665 16.9058 17.7495 17.0005 17.8772 17.1632C18.0047 17.3256 18.0685 17.5361 18.0688 17.7949C18.0688 18.0272 17.9937 18.2329 17.8434 18.412C17.6927 18.5913 17.4868 18.661 17.226 18.621C16.8742 18.5616 16.4869 18.4056 16.0641 18.153C15.6186 17.883 15.1993 17.5577 14.8133 17.1827C14.4033 16.7895 14.0335 16.3421 13.7113 15.8494C13.3875 15.355 13.152 14.8357 13.0049 14.2916H12.9369V21H11.8217V14.2916H11.7622C11.6146 14.8357 11.3791 15.355 11.0558 15.8494C10.7336 16.3421 10.3638 16.7895 9.95378 17.1827C9.56685 17.5587 9.14599 17.8842 8.69868 18.1534C8.2728 18.4055 7.88682 18.5615 7.54073 18.6215C7.28012 18.6609 7.07457 18.5912 6.92406 18.4124C6.77381 18.2328 6.69868 18.0269 6.69868 17.7949C6.69868 17.5361 6.76241 17.3256 6.88986 17.1632C7.01757 17.0005 7.19761 16.9058 7.42998 16.8792C7.7481 16.8398 8.08292 16.7054 8.43445 16.4761C8.80127 16.2356 9.14627 15.9523 9.46418 15.6304C9.78651 15.31 10.0855 14.9587 10.3579 14.5802C10.619 14.2154 10.8147 13.8737 10.945 13.555H2.375V12.3707ZM11.3876 12.2117H11.66V11.9126C11.66 11.4082 11.5934 10.9321 11.4603 10.4843C11.3347 10.0536 11.1492 9.65014 10.9112 9.29009C10.6786 8.94169 10.4119 8.66797 10.1112 8.46892C9.81852 8.27247 9.48685 8.16951 9.14943 8.17036C8.82614 8.17036 8.56799 8.28488 8.375 8.51391C8.18227 8.74265 8.08577 9.05621 8.08551 9.4546C8.08551 9.78634 8.17359 10.1147 8.34974 10.4398C8.52538 10.7649 8.76643 11.0618 9.07288 11.3305C9.39374 11.6079 9.74987 11.8246 10.1283 11.9726C10.5338 12.1336 10.9594 12.2147 11.3876 12.2117ZM13.3709 12.2112C13.802 12.2143 14.2305 12.1335 14.6388 11.9722C15.0172 11.8241 15.3734 11.6074 15.6942 11.3301C16.0004 11.0613 16.24 10.7644 16.4131 10.4394C16.5864 10.114 16.673 9.78543 16.673 9.45369C16.673 9.0556 16.578 8.74204 16.3878 8.51301C16.1977 8.28397 15.9381 8.1696 15.6091 8.16991C15.2742 8.16991 14.9564 8.26943 14.6559 8.46847C14.3554 8.66751 14.0887 8.94124 13.8559 9.28964C13.6176 9.65023 13.4307 10.0535 13.3025 10.4839C13.1648 10.9427 13.0958 11.4259 13.0985 11.9122V12.2108L13.3709 12.2112ZM5.04762 20.9995H19.7028C20.5934 20.9995 21.2615 20.7425 21.707 20.2284C22.1523 19.7139 22.375 18.9459 22.375 17.9244V7.08562C22.375 6.06375 22.1522 5.29393 21.7066 4.77618C21.2611 4.25842 20.5933 3.9997 19.7032 4H5.04724C4.15688 4 3.48892 4.25706 3.04335 4.77118C2.59778 5.2853 2.375 6.05678 2.375 7.08562V17.9239C2.375 18.9461 2.59778 19.7141 3.04335 20.2279C3.48866 20.7423 4.15662 20.9995 5.04724 20.9995" fill="#E03A6A"/>
</svg>
