<svg width="25" height="25" viewBox="0 0 25 25" fill="none" xmlns="http://www.w3.org/2000/svg">
<path d="M2.875 15.5H11.875V24.5H7.875C6.54892 24.5 5.27715 23.9732 4.33947 23.0355C3.40178 22.0979 2.875 20.8261 2.875 19.5V15.5ZM24.875 11.5C24.875 12.0304 24.6643 12.5391 24.2892 12.9142C23.9141 13.2893 23.4054 13.5 22.875 13.5H13.875V9.457C13.539 9.483 13.204 9.5 12.875 9.5C12.546 9.5 12.211 9.483 11.875 9.457V13.5H2.875C2.34457 13.5 1.83586 13.2893 1.46079 12.9142C1.08571 12.5391 0.875 12.0304 0.875 11.5C0.875 10.4391 1.29643 9.42172 2.04657 8.67157C2.79672 7.92143 3.81413 7.5 4.875 7.5H6.613C6.0476 7.0016 5.5988 6.38488 5.29844 5.6936C4.99807 5.00232 4.85351 4.25341 4.875 3.5C4.875 3.23478 4.98036 2.98043 5.16789 2.79289C5.35543 2.60536 5.60978 2.5 5.875 2.5C6.14022 2.5 6.39457 2.60536 6.58211 2.79289C6.76964 2.98043 6.875 3.23478 6.875 3.5C6.875 6.122 9.246 7.03 11.049 7.341C10.3835 6.16105 9.98291 4.85037 9.875 3.5C9.875 2.70435 10.1911 1.94129 10.7537 1.37868C11.3163 0.81607 12.0794 0.5 12.875 0.5C13.6706 0.5 14.4337 0.81607 14.9963 1.37868C15.5589 1.94129 15.875 2.70435 15.875 3.5C15.7671 4.85037 15.3665 6.16105 14.701 7.341C16.504 7.03 18.875 6.122 18.875 3.5C18.875 3.23478 18.9804 2.98043 19.1679 2.79289C19.3554 2.60536 19.6098 2.5 19.875 2.5C20.1402 2.5 20.3946 2.60536 20.5821 2.79289C20.7696 2.98043 20.875 3.23478 20.875 3.5C20.8965 4.25341 20.7519 5.00232 20.4516 5.6936C20.1512 6.38488 19.7024 7.0016 19.137 7.5H20.875C21.9359 7.5 22.9533 7.92143 23.7034 8.67157C24.4536 9.42172 24.875 10.4391 24.875 11.5ZM11.875 3.5C11.9957 4.56283 12.3363 5.58891 12.875 6.513C13.4137 5.58891 13.7543 4.56283 13.875 3.5C13.875 3.23478 13.7696 2.98043 13.5821 2.79289C13.3946 2.60536 13.1402 2.5 12.875 2.5C12.6098 2.5 12.3554 2.60536 12.1679 2.79289C11.9804 2.98043 11.875 3.23478 11.875 3.5ZM13.875 24.5H17.875C18.5316 24.5 19.1818 24.3707 19.7884 24.1194C20.395 23.8681 20.9462 23.4998 21.4105 23.0355C21.8748 22.5712 22.2431 22.02 22.4944 21.4134C22.7457 20.8068 22.875 20.1566 22.875 19.5V15.5H13.875V24.5Z" fill="url(#paint0_linear_4_43595)"/>
<defs>
<linearGradient id="paint0_linear_4_43595" x1="24.875" y1="24.5" x2="-4.08459" y2="11.89" gradientUnits="userSpaceOnUse">
<stop stop-color="#00A084"/>
<stop offset="1" stop-color="#00DEB6"/>
</linearGradient>
</defs>
</svg>
