<svg width="25" height="25" viewBox="0 0 25 25" fill="none" xmlns="http://www.w3.org/2000/svg">
<path d="M18.7527 11.1627C19.0473 9.19248 17.5474 8.13343 15.4963 7.42694L16.1617 4.75815L14.5371 4.35335L13.8894 6.95187C13.4623 6.84535 13.0237 6.74498 12.5877 6.64548L13.2402 4.02981L11.6166 3.625L10.9509 6.29292C10.5974 6.21245 10.2503 6.13293 9.91352 6.04913L9.9154 6.04073L7.67508 5.48129L7.24292 7.21644C7.24292 7.21644 8.44822 7.49272 8.42282 7.50973C9.08068 7.67392 9.19965 8.10941 9.17989 8.45459L8.42195 11.495C8.46725 11.5065 8.52601 11.5231 8.59085 11.5492C8.53665 11.5357 8.47897 11.521 8.41913 11.5067L7.35675 15.7658C7.27635 15.9657 7.07229 16.2657 6.61234 16.1518C6.62862 16.1753 5.43157 15.8571 5.43157 15.8571L4.625 17.7167L6.73912 18.2437C7.13242 18.3424 7.51783 18.4456 7.89738 18.5426L7.22512 21.242L8.84781 21.6468L9.51356 18.9761C9.95687 19.0964 10.3871 19.2074 10.8082 19.312L10.1447 21.9702L11.7694 22.375L12.4416 19.6807C15.2118 20.2049 17.2948 19.9936 18.1716 17.4879C18.8781 15.4705 18.1364 14.3069 16.679 13.5481C17.7405 13.3033 18.5395 12.6049 18.7527 11.1627ZM15.0409 16.3675C14.5388 18.3849 11.1422 17.2944 10.041 17.0209L10.9331 13.4447C12.0342 13.7196 15.5655 14.2636 15.0409 16.3675ZM15.5433 11.1334C15.0853 12.9684 12.2583 12.0362 11.3412 11.8076L12.15 8.56415C13.0671 8.79275 16.0203 9.2194 15.5433 11.1334Z" fill="#F7931A"/>
</svg>
