<svg width="25" height="25" viewBox="0 0 25 25" fill="none" xmlns="http://www.w3.org/2000/svg">
<path d="M12.5972 4.39345C13.4018 4.39345 13.7579 4.39415 14.0515 4.42028C17.3164 4.71083 19.9038 7.28268 20.1961 10.5278C20.2224 10.8197 20.2231 11.1737 20.2231 11.9734V12.893C20.2231 13.2778 20.5369 13.5897 20.9241 13.5897C21.3112 13.5897 21.625 13.2778 21.625 12.893V11.9265C21.625 11.1862 21.625 10.7655 21.5924 10.4036C21.2396 6.48701 18.1168 3.38305 14.1765 3.03239C13.8124 2.99998 13.3891 2.99999 12.6443 3H11.672C11.2849 3 10.9711 3.31194 10.9711 3.69673C10.9711 4.08152 11.2849 4.39345 11.672 4.39345L12.5972 4.39345Z" fill="#2A8AE6"/>
<path d="M7.10345 5.57816C6.12017 4.6801 4.60878 4.6801 3.62551 5.57816C3.58524 5.61493 3.54225 5.65767 3.48644 5.71316L2.64763 6.54691C1.80358 7.38587 1.44926 8.59531 1.7082 9.75353C3.17736 16.3249 8.34057 21.457 14.9518 22.9173C16.117 23.1747 17.3338 22.8225 18.1778 21.9835L19.0165 21.1499C19.0724 21.0943 19.1154 21.0516 19.1525 21.0115C20.056 20.0342 20.056 18.5319 19.1525 17.5546C19.1154 17.5145 19.0724 17.4718 19.0166 17.4162L17.6434 16.0514C16.69 15.1037 15.2502 14.8327 14.0143 15.3682C13.3067 15.6748 12.4824 15.5196 11.9366 14.9771L9.69654 12.7505C9.15074 12.208 8.99463 11.3887 9.30307 10.6854C9.84183 9.45688 9.56916 8.02578 8.61578 7.07814L7.24254 5.71318C7.18671 5.65768 7.14372 5.61494 7.10345 5.57816Z" fill="#2A8AE6"/>
<path d="M12.3328 6.28439C11.9457 6.28439 11.6318 6.59632 11.6318 6.98111C11.6318 7.3659 11.9457 7.67784 12.3328 7.67784H12.8615C12.943 7.67783 12.9764 7.67785 13.0035 7.67824C15.1527 7.70884 16.8875 9.43317 16.9183 11.5694C16.9187 11.5964 16.9187 11.6296 16.9187 11.7106V12.2361C16.9187 12.6209 17.2325 12.9329 17.6196 12.9329C18.0068 12.9329 18.3206 12.6209 18.3206 12.2361V11.7039C18.3206 11.6317 18.3206 11.5878 18.32 11.5494C18.2784 8.65926 15.9313 6.32633 13.0236 6.28494C12.9851 6.28439 12.9409 6.28439 12.8682 6.28439H12.3328Z" fill="#2A8AE6"/>
</svg>
