<svg width="21" height="20" viewBox="0 0 21 20" fill="none" xmlns="http://www.w3.org/2000/svg">
<path d="M20.5634 0.122766C20.8089 0.301334 20.9093 0.539424 20.8647 0.837038L18.0076 17.9796C17.9704 18.1953 17.8514 18.3627 17.6505 18.4818C17.5463 18.5413 17.431 18.5711 17.3045 18.5711C17.2227 18.5711 17.1334 18.5525 17.0366 18.5153L11.9809 16.4506L9.2801 19.7429C9.14617 19.9141 8.96388 19.9996 8.73323 19.9996C8.63651 19.9996 8.55466 19.9847 8.4877 19.955C8.34634 19.9029 8.23287 19.8155 8.14731 19.6927C8.06174 19.5699 8.01896 19.4342 8.01896 19.2853V15.3903L17.6616 3.57136L5.73106 13.8948L1.32266 12.0868C1.04737 11.9827 0.898561 11.778 0.87624 11.473C0.861359 11.1754 0.980405 10.9559 1.23338 10.8145L19.8044 0.100445C19.9161 0.0334815 20.0351 0 20.1616 0C20.3104 0 20.4443 0.0409218 20.5634 0.122766Z" fill="#C79101"/>
</svg>
