<svg width="25" height="25" viewBox="0 0 25 25" fill="none" xmlns="http://www.w3.org/2000/svg">
<path d="M10.8551 8.04265V3.82264C10.8551 3.37393 11.1951 3 11.6251 3C12.0101 3 12.3363 3.3142 12.388 3.71219L12.3951 3.82264V8.04265L17.175 8.04297C19.555 8.04297 21.5103 10.0945 21.6201 12.6531L21.625 12.8801V18.1846C21.625 20.7611 19.7377 22.876 17.393 22.9947L17.185 23H6.065C3.685 23 1.73909 20.9587 1.62984 18.3908L1.625 18.1629L1.625 12.8692C1.625 10.2927 3.50291 8.16759 5.84699 8.04826L6.055 8.04297H10.855V14.7823L9.255 13.0431C8.955 12.717 8.465 12.717 8.165 13.0431C8.015 13.2062 7.945 13.4236 7.945 13.641C7.945 13.8062 7.9898 13.9784 8.08452 14.1241L8.165 14.228L11.075 17.402C11.215 17.565 11.415 17.652 11.625 17.652C11.7917 17.652 11.9583 17.5916 12.0903 17.4771L12.165 17.402L15.075 14.228C15.375 13.9019 15.375 13.3692 15.075 13.0431C14.8023 12.7467 14.3725 12.7197 14.0712 12.9623L13.985 13.0431L12.395 14.7823V8.04297L10.8551 8.04265Z" fill="#C79101"/>
</svg>
