<svg width="350" height="122" viewBox="0 0 350 122" fill="none" xmlns="http://www.w3.org/2000/svg">
<path d="M258.451 -94.2337C252.288 -95.0012 245.861 -96.637 239.064 -98.3638C227.42 -101.317 215.514 -104.316 203.984 -103.292C193.714 -104.144 183.605 -103.443 174.346 -98.9935C163.299 -93.6725 159.693 -80.8195 164.294 -71.3627C178.731 -41.7131 230.181 -40.2395 237.36 -6.41787V-6.37241C241.813 7.74823 232.684 23.9015 222.649 34.4788C205.572 52.382 174.43 67.1531 146.264 70.2147C145 70.1712 143.684 70.1732 142.42 70.1293C131.151 69.8729 118.67 69.6181 106.297 70.369C85.2347 70.4939 63.3328 72.3112 46.6064 81.3443C20.2019 95.5591 27.6497 131.941 52.4907 125.455C53.6509 126.231 54.9159 126.914 56.2336 127.37C61.3977 129.236 70.1926 129.634 82.3906 120.699C95.6399 111.031 108.006 106.668 121.276 106.876C132.966 107.086 145.612 110.861 162.269 119.064C177.028 126.356 191.216 137.124 206.194 148.576C229.348 166.188 253.345 184.438 280.422 189.562C297.016 192.69 316.024 192.203 336.973 188.055C347.237 186.027 358.026 183.13 369.182 179.364L369.176 176.438C357.757 180.342 346.758 183.331 336.283 185.405C315.808 189.46 297.221 189.946 281.101 186.909C254.814 181.921 231.134 163.944 208.244 146.515C193.107 135.018 178.814 124.113 163.791 116.685C146.659 108.208 133.54 104.342 121.322 104.133C107.21 103.88 94.2129 108.473 80.3324 118.599C71.6046 124.968 63.7103 127.083 57.4393 124.807C51.8532 122.759 48.1033 117.324 47.4566 110.193C46.7024 102.101 50.4164 90.2539 63.1977 83.3299C85.0261 71.5455 116.833 72.2729 142.373 72.8272C145.006 72.8687 147.586 72.956 150.114 72.9979C180.657 73.5442 219.222 57.71 239.714 36.1893C250.012 25.3831 259.35 8.6806 254.739 -5.89664L254.738 -5.9425C249.969 -20.5197 232.518 -30.322 215.595 -39.7594C203.417 -46.5982 191.925 -53.0267 185.273 -60.9715C178.886 -68.551 176.342 -76.4565 178.065 -83.1801C179.528 -88.8517 183.836 -93.4762 190.938 -96.9162C205.615 -104.026 222.21 -99.8003 238.227 -95.7563C245.129 -93.9841 251.662 -92.3485 258.035 -91.5355C276.365 -89.2327 297.951 -91.0497 318.792 -96.6146C338.474 -101.903 355.887 -110.297 368.503 -120.513L368.495 -124.308C356.09 -113.59 338.205 -104.737 317.838 -99.2647C297.734 -93.8382 276.096 -92.0211 258.451 -94.2337Z" fill="white"/>
<path d="M149.556 -46.3671C135.005 -51.4099 121.805 -53.1361 112.391 -51.2773C98.9892 -48.6281 91.6278 -39.6598 84.5516 -30.9607C81.979 -27.8591 79.3021 -24.5921 76.4195 -21.7382C68.8744 -14.2841 59.8172 -10.3998 50.213 -6.26908C40.2073 -1.96206 29.8709 2.45343 21.4944 11.2318L21.3548 11.4308C18.0762 16.1433 15.8628 20.5261 14.7081 24.4503C6.67929 40.5286 6.36879 59.048 24.6981 65.1843C47.7979 72.897 73.6136 45.3082 93.5087 38.1546C120.51 28.4163 147.235 41.8231 174.932 34.9395C194.747 30.0215 207.557 11.0535 206.182 3.30526C206.026 2.37247 205.757 1.41137 205.452 0.483765C205.424 -0.097683 205.36 -0.645233 205.258 -1.22389C203.874 -9.16634 197.69 -17.7129 187.346 -25.9806C177.231 -34.1272 163.463 -41.5277 149.556 -46.3671ZM51.6722 -3.79773C61.1308 -7.85828 70.8811 -12.0588 78.8543 -19.9166C81.844 -22.8714 84.5562 -26.1721 87.1615 -29.3719C94.2409 -38.0064 100.969 -46.1754 113.115 -48.5854C131.058 -52.1418 164.128 -40.8721 185.242 -23.9961C195.044 -16.1617 200.866 -8.15219 202.145 -0.853401C203.524 6.95984 195.467 13.0734 178.342 17.3445C166.482 20.294 154.061 21.6141 142.009 22.8555C125.954 24.5648 109.378 26.2924 93.7696 31.9006C88.0911 33.9489 82.5592 36.7361 77.2477 39.4507C63.5317 46.4468 50.5409 53.0285 34.6358 47.711C29.6743 46.0448 25.665 44.0209 22.837 41.7605C14.7012 35.2577 15.0705 25.7962 23.994 12.8569C31.9879 4.64243 41.9936 0.335812 51.6722 -3.79773Z" fill="white"/>
<path d="M287.726 126.239C289.268 126.635 290.907 126.819 292.606 126.847C303.339 126.984 314.287 121.672 322.619 112.332C332.323 101.439 336.467 87.3978 333.105 76.5832C332.749 75.4359 332.277 74.2678 331.781 73.1998C329.537 68.6113 325.51 65.4827 319.765 63.8452C308.288 60.615 291.623 64.3784 281.719 69.5405C275.997 72.5386 271.767 78.4077 269.836 86.0583C268.07 93.0073 268.318 101 270.5 108.018C273.555 117.673 279.83 124.348 287.726 126.239ZM283.328 71.9101C291.248 67.7339 307.491 63.312 318.787 66.4897C323.632 67.8639 327.009 70.4824 328.854 74.3121C329.322 75.2915 329.74 76.2829 330.069 77.3421C333.184 87.3623 329.301 100.49 320.144 110.686C312.41 119.318 302.373 124.227 292.637 124.141C291.219 124.141 289.848 123.942 288.552 123.63C281.707 121.966 276.266 116.043 273.55 107.303C269.704 94.7556 272.301 77.6672 283.328 71.9101Z" fill="white"/>
<path d="M205.599 85.9653C203.366 87.0895 200.811 89.3691 201.354 93.759C201.859 97.8663 205.26 103.927 208.621 106.726C213.458 110.768 223.105 109.798 229.582 106.538C234.198 104.214 236.896 100.956 236.887 97.5923C236.899 96.9391 236.792 96.2583 236.59 95.5827C235.566 92.039 231.535 88.7573 225.595 86.5655C219.479 84.3331 210.922 83.2858 205.599 85.9653ZM234.123 96.1339C234.255 96.6288 234.328 97.1105 234.342 97.5783C234.312 100.141 232.121 102.669 228.287 104.599C221.14 108.196 213.467 107.654 210.375 105.108C207.487 102.72 204.367 97.0786 203.92 93.5042C203.602 90.9435 204.587 89.066 206.894 87.9043C210.802 85.937 218.073 86.2497 224.644 88.6421C229.733 90.528 233.286 93.3164 234.123 96.1339Z" fill="white"/>
<path d="M260.563 -32.7824C260.367 -25.284 264.016 -17.8373 271.668 -9.89421C283.7 2.52275 301.198 9.67319 318.062 16.5963C319.116 17.0059 320.118 17.4158 321.119 17.8717C357.959 32.9929 387.898 47.3017 414.165 68.0173C415.325 68.9297 416.644 69.9335 418.068 71.0745C420.177 72.7171 422.604 74.5875 425.188 76.6409L425.181 72.9377C423.387 71.5231 421.7 70.2458 420.17 69.0593C418.746 67.9642 417.427 66.915 416.267 66.048C389.684 45.1044 359.534 30.7042 322.431 15.4462C321.429 15.0366 320.375 14.6267 319.321 14.1712C302.72 7.3849 285.591 0.370834 273.982 -11.5895C266.857 -18.9848 263.42 -25.8831 263.617 -32.65C263.809 -41.52 266.479 -49.0223 271.312 -54.3334C276.566 -60.1024 283.985 -62.9944 293.411 -62.8264C310.104 -62.5783 325.23 -56.1556 339.882 -49.915C354.481 -43.72 369.502 -37.3429 386.512 -36.6838C400.888 -36.1578 414.154 -37.8246 424.942 -41.4077L424.936 -44.3338C414.412 -40.6597 401.146 -38.9014 386.664 -39.4273C370.339 -40.0417 355.581 -46.3278 341.298 -52.3861C326.383 -58.7177 310.941 -65.2771 293.51 -65.5697C273.71 -65.95 261.046 -53.3571 260.563 -32.7824Z" fill="white"/>
</svg>
