<svg width="135" height="40" viewBox="0 0 135 40" fill="none" xmlns="http://www.w3.org/2000/svg">
<path d="M130 0H5C2.23858 0 0 2.23858 0 5V35C0 37.7614 2.23858 40 5 40H130C132.761 40 135 37.7614 135 35V5C135 2.23858 132.761 0 130 0Z" fill="#1C1C1E"/>
<path d="M32.1129 19.3128C32.0853 16.2419 34.6274 14.7479 34.7436 14.6783C33.3039 12.5793 31.0724 12.2925 30.2883 12.2696C28.4141 12.0724 26.5962 13.3911 25.6415 13.3911C24.6677 13.3911 23.1975 12.2887 21.613 12.3211C19.574 12.3525 17.6665 13.533 16.6203 15.3662C14.4612 19.1041 16.0715 24.597 18.14 27.6184C19.1748 29.0981 20.3839 30.7503 21.9665 30.6921C23.5148 30.6283 24.0931 29.705 25.9616 29.705C27.8129 29.705 28.356 30.6921 29.97 30.655C31.6317 30.6283 32.6779 29.1686 33.6765 27.6755C34.8722 25.9796 35.3525 24.3093 35.3715 24.2235C35.3324 24.2102 32.1444 22.9935 32.1129 19.3128Z" fill="white"/>
<path d="M29.0639 10.2823C29.8967 9.24084 30.4664 7.82402 30.3083 6.38623C29.103 6.43959 27.5956 7.21994 26.7276 8.23849C25.9597 9.13603 25.2736 10.6072 25.4509 11.9906C26.8048 12.0916 28.1949 11.3075 29.0639 10.2823Z" fill="white"/>
<path d="M54.5198 30.4798H52.356L51.1707 26.7552H47.0508L45.9217 30.4798H43.8151L47.8969 17.7998H50.418L54.5198 30.4798ZM50.8134 25.1926L49.7415 21.8816C49.6281 21.5434 49.4157 20.7468 49.1022 19.4929H49.0641C48.9393 20.0322 48.7382 20.8288 48.4619 21.8816L47.409 25.1926H50.8134Z" fill="white"/>
<path d="M65.0167 25.7958C65.0167 27.3507 64.5965 28.5799 63.7561 29.4822C63.0034 30.2854 62.0687 30.6865 60.953 30.6865C59.7486 30.6865 58.8835 30.2539 58.3566 29.3888H58.3184V34.2052H56.2871V24.3465C56.2871 23.369 56.2613 22.3657 56.2118 21.3366H57.9983L58.1117 22.7858H58.1498C58.8272 21.6939 59.8553 21.1489 61.235 21.1489C62.3136 21.1489 63.214 21.5748 63.9343 22.4276C64.6565 23.2813 65.0167 24.4037 65.0167 25.7958ZM62.9472 25.8701C62.9472 24.9802 62.7471 24.2465 62.345 23.6691C61.9058 23.0669 61.316 22.7658 60.5766 22.7658C60.0754 22.7658 59.62 22.9335 59.2131 23.2642C58.8053 23.5976 58.5385 24.0331 58.4137 24.5724C58.3508 24.8239 58.3194 25.0297 58.3194 25.1917V26.7162C58.3194 27.3812 58.5233 27.9424 58.9311 28.4007C59.3389 28.859 59.8687 29.0877 60.5204 29.0877C61.2855 29.0877 61.881 28.7923 62.3069 28.2035C62.7338 27.6137 62.9472 26.8362 62.9472 25.8701Z" fill="white"/>
<path d="M75.533 25.7958C75.533 27.3507 75.1128 28.5799 74.2715 29.4822C73.5197 30.2854 72.585 30.6865 71.4693 30.6865C70.2649 30.6865 69.3998 30.2539 68.8738 29.3888H68.8357V34.2052H66.8043V24.3465C66.8043 23.369 66.7786 22.3657 66.7291 21.3366H68.5156L68.629 22.7858H68.6671C69.3436 21.6939 70.3716 21.1489 71.7523 21.1489C72.8299 21.1489 73.7303 21.5748 74.4525 22.4276C75.1719 23.2813 75.533 24.4037 75.533 25.7958ZM73.4635 25.8701C73.4635 24.9802 73.2625 24.2465 72.8604 23.6691C72.4211 23.0669 71.8333 22.7658 71.0929 22.7658C70.5908 22.7658 70.1363 22.9335 69.7285 23.2642C69.3207 23.5976 69.0549 24.0331 68.93 24.5724C68.8681 24.8239 68.8357 25.0297 68.8357 25.1917V26.7162C68.8357 27.3812 69.0396 27.9424 69.4455 28.4007C69.8533 28.8581 70.3831 29.0877 71.0367 29.0877C71.8018 29.0877 72.3973 28.7923 72.8232 28.2035C73.2501 27.6137 73.4635 26.8362 73.4635 25.8701Z" fill="white"/>
<path d="M87.2907 26.9241C87.2907 28.0027 86.9162 28.8802 86.1645 29.5577C85.3384 30.298 84.1884 30.6677 82.7105 30.6677C81.3461 30.6677 80.2523 30.4047 79.4243 29.8778L79.895 28.1847C80.7868 28.724 81.7654 28.9946 82.8316 28.9946C83.5967 28.9946 84.1922 28.8212 84.62 28.4762C85.0459 28.1313 85.2583 27.6683 85.2583 27.0909C85.2583 26.5764 85.083 26.1428 84.7314 25.7912C84.3818 25.4397 83.7977 25.1128 82.9821 24.8108C80.7621 23.9828 79.653 22.7699 79.653 21.1749C79.653 20.1325 80.0417 19.2779 80.8202 18.6128C81.5958 17.9468 82.6305 17.6143 83.9244 17.6143C85.0783 17.6143 86.0368 17.8153 86.8019 18.2164L86.294 19.8724C85.5794 19.4837 84.7715 19.2893 83.8673 19.2893C83.1526 19.2893 82.5943 19.4656 82.1941 19.8162C81.8559 20.1297 81.6863 20.5117 81.6863 20.9643C81.6863 21.4655 81.8797 21.88 82.2684 22.2058C82.6067 22.5069 83.2213 22.8328 84.1131 23.1844C85.204 23.6236 86.0054 24.1372 86.5208 24.726C87.0344 25.3129 87.2907 26.0475 87.2907 26.9241Z" fill="white"/>
<path d="M94.0069 22.8612H91.7678V27.3004C91.7678 28.4294 92.1623 28.9935 92.9531 28.9935C93.3161 28.9935 93.6172 28.9621 93.8554 28.8992L93.9116 30.4418C93.5115 30.5914 92.9846 30.6666 92.3319 30.6666C91.5296 30.6666 90.9027 30.4218 90.4501 29.933C89.9994 29.4432 89.7726 28.6219 89.7726 27.4681V22.8593H88.4387V21.3348H89.7726V19.6608L91.7678 19.0586V21.3348H94.0069V22.8612Z" fill="white"/>
<path d="M104.11 25.8334C104.11 27.2388 103.707 28.3927 102.905 29.295C102.064 30.224 100.947 30.687 99.5551 30.687C98.2136 30.687 97.1455 30.2421 96.3489 29.3521C95.5524 28.4622 95.1541 27.3389 95.1541 25.9849C95.1541 24.5681 95.5638 23.4076 96.3861 22.5053C97.2065 21.602 98.3136 21.1504 99.7057 21.1504C101.047 21.1504 102.127 21.5954 102.941 22.4862C103.721 23.3504 104.11 24.4662 104.11 25.8334ZM102.002 25.8992C102.002 25.0559 101.822 24.3328 101.457 23.7296C101.031 22.9998 100.422 22.6358 99.6333 22.6358C98.8167 22.6358 98.1964 23.0007 97.7705 23.7296C97.4056 24.3337 97.2255 25.0683 97.2255 25.9373C97.2255 26.7805 97.4056 27.5037 97.7705 28.1059C98.2098 28.8357 98.8234 29.1997 99.6152 29.1997C100.391 29.1997 101 28.8281 101.439 28.0868C101.813 27.4723 102.002 26.7415 102.002 25.8992Z" fill="white"/>
<path d="M110.712 23.1231C110.511 23.086 110.297 23.0669 110.072 23.0669C109.357 23.0669 108.805 23.3366 108.416 23.8768C108.078 24.3532 107.908 24.9554 107.908 25.6824V30.4798H105.878L105.897 24.216C105.897 23.1622 105.871 22.2027 105.821 21.3376H107.59L107.664 23.0869H107.721C107.935 22.4857 108.273 22.0017 108.736 21.6387C109.189 21.3119 109.678 21.1489 110.204 21.1489C110.392 21.1489 110.562 21.1623 110.712 21.1861V23.1231Z" fill="white"/>
<path d="M119.797 25.4757C119.797 25.8397 119.774 26.1465 119.723 26.397H113.629C113.653 27.3003 113.947 27.9911 114.513 28.4675C115.027 28.8934 115.691 29.1068 116.506 29.1068C117.409 29.1068 118.232 28.963 118.972 28.6743L119.291 30.0844C118.425 30.4617 117.404 30.6494 116.225 30.6494C114.808 30.6494 113.695 30.2321 112.885 29.3984C112.077 28.5647 111.672 27.4451 111.672 26.0407C111.672 24.662 112.048 23.5139 112.802 22.5982C113.591 21.6206 114.657 21.1318 115.999 21.1318C117.316 21.1318 118.314 21.6206 118.991 22.5982C119.528 23.3747 119.797 24.3352 119.797 25.4757ZM117.86 24.9488C117.874 24.3466 117.741 23.8264 117.466 23.3871C117.114 22.8221 116.574 22.5401 115.847 22.5401C115.183 22.5401 114.643 22.8154 114.23 23.3681C113.892 23.8073 113.691 24.3342 113.629 24.9478H117.86V24.9488Z" fill="white"/>
<path d="M50.142 9.99957C50.142 11.121 49.8056 11.9652 49.1339 12.5321C48.5117 13.0552 47.6275 13.3172 46.4823 13.3172C45.9144 13.3172 45.4285 13.2925 45.0216 13.2429V7.11542C45.5523 7.02967 46.124 6.98584 46.7414 6.98584C47.8324 6.98584 48.6547 7.22309 49.2092 7.69759C49.8304 8.23402 50.142 9.00102 50.142 9.99957ZM49.0891 10.0272C49.0891 9.30021 48.8967 8.74281 48.5117 8.35407C48.1268 7.96628 47.5646 7.7719 46.8243 7.7719C46.5099 7.7719 46.2422 7.79287 46.0201 7.8367V12.495C46.1431 12.514 46.3679 12.5226 46.6947 12.5226C47.4589 12.5226 48.0487 12.3101 48.4641 11.8852C48.8795 11.4602 49.0891 10.8409 49.0891 10.0272Z" fill="white"/>
<path d="M55.7245 10.9788C55.7245 11.6696 55.5273 12.2355 55.1328 12.6795C54.7193 13.1359 54.1715 13.3637 53.4874 13.3637C52.828 13.3637 52.303 13.1455 51.9114 12.7072C51.5208 12.2698 51.3254 11.7182 51.3254 11.0531C51.3254 10.3576 51.5265 9.78682 51.9305 9.34377C52.3345 8.90071 52.8776 8.67871 53.5617 8.67871C54.221 8.67871 54.7508 8.8969 55.1519 9.33424C55.533 9.75919 55.7245 10.308 55.7245 10.9788ZM54.6888 11.0112C54.6888 10.5967 54.5993 10.2413 54.4211 9.94499C54.2115 9.58673 53.9133 9.40761 53.5255 9.40761C53.1243 9.40761 52.8194 9.58673 52.6098 9.94499C52.4307 10.2413 52.3421 10.6024 52.3421 11.0293C52.3421 11.4438 52.4316 11.7992 52.6098 12.0955C52.8261 12.4537 53.1272 12.6329 53.5159 12.6329C53.8971 12.6329 54.1962 12.4509 54.4116 12.0859C54.5964 11.7839 54.6888 11.4257 54.6888 11.0112Z" fill="white"/>
<path d="M63.2098 8.77051L61.8044 13.262H60.8897L60.3076 11.3116C60.1599 10.8248 60.0398 10.3407 59.9465 9.86052H59.9283C59.8416 10.3541 59.7216 10.8371 59.5672 11.3116L58.9489 13.262H58.0237L56.7021 8.77051H57.7283L58.2362 10.9057C58.3591 11.4107 58.4601 11.8919 58.5411 12.3473H58.5592C58.6335 11.9719 58.7564 11.4936 58.9298 10.9153L59.5672 8.77146H60.3809L60.9917 10.8695C61.1394 11.3812 61.2594 11.8738 61.3518 12.3483H61.3795C61.4471 11.8862 61.5491 11.3936 61.6844 10.8695L62.2294 8.77146H63.2098V8.77051Z" fill="white"/>
<path d="M68.3863 13.2616H67.3877V10.6891C67.3877 9.89633 67.0866 9.49996 66.4826 9.49996C66.1862 9.49996 65.9471 9.60858 65.7613 9.82677C65.5774 10.045 65.484 10.3022 65.484 10.5966V13.2607H64.4855V10.0535C64.4855 9.65908 64.4731 9.23127 64.4493 8.7682H65.3268L65.3735 9.47042H65.4011C65.5174 9.25223 65.6908 9.07215 65.9185 8.92828C66.1891 8.76058 66.4921 8.67578 66.8237 8.67578C67.2429 8.67578 67.5916 8.81108 67.8689 9.08263C68.2138 9.41516 68.3863 9.91157 68.3863 10.5709V13.2616Z" fill="white"/>
<path d="M71.1398 13.2619H70.1422V6.70947H71.1398V13.2619Z" fill="white"/>
<path d="M77.0188 10.9788C77.0188 11.6696 76.8216 12.2355 76.4271 12.6795C76.0136 13.1359 75.4648 13.3637 74.7816 13.3637C74.1213 13.3637 73.5963 13.1455 73.2057 12.7072C72.815 12.2698 72.6197 11.7182 72.6197 11.0531C72.6197 10.3576 72.8207 9.78682 73.2247 9.34377C73.6287 8.90071 74.1718 8.67871 74.855 8.67871C75.5153 8.67871 76.0441 8.8969 76.4462 9.33424C76.8273 9.75919 77.0188 10.308 77.0188 10.9788ZM75.9821 11.0112C75.9821 10.5967 75.8926 10.2413 75.7144 9.94499C75.5057 9.58673 75.2066 9.40761 74.8197 9.40761C74.4176 9.40761 74.1127 9.58673 73.9041 9.94499C73.7249 10.2413 73.6363 10.6024 73.6363 11.0293C73.6363 11.4438 73.7259 11.7992 73.9041 12.0955C74.1204 12.4537 74.4214 12.6329 74.8102 12.6329C75.1913 12.6329 75.4895 12.4509 75.7049 12.0859C75.8907 11.7839 75.9821 11.4257 75.9821 11.0112Z" fill="white"/>
<path d="M81.8513 13.2617H80.9547L80.8804 12.7443H80.8528C80.546 13.1569 80.1086 13.3637 79.5407 13.3637C79.1167 13.3637 78.7737 13.2274 78.5155 12.9568C78.2811 12.711 78.1639 12.4051 78.1639 12.0421C78.1639 11.4933 78.3926 11.075 78.8528 10.7854C79.3121 10.4957 79.9581 10.3537 80.7899 10.3604V10.2766C80.7899 9.68487 80.4793 9.3895 79.8571 9.3895C79.414 9.3895 79.0234 9.50098 78.6861 9.72203L78.4831 9.0665C78.9005 8.80829 79.4159 8.67871 80.0238 8.67871C81.1977 8.67871 81.7865 9.29803 81.7865 10.5367V12.1908C81.7865 12.6395 81.8084 12.9968 81.8513 13.2617ZM80.8146 11.7182V11.0255C79.7132 11.0064 79.1625 11.3085 79.1625 11.9306C79.1625 12.165 79.2254 12.3403 79.354 12.4575C79.4826 12.5747 79.6465 12.6329 79.8418 12.6329C80.061 12.6329 80.2658 12.5633 80.4526 12.4251C80.6403 12.286 80.7556 12.1098 80.7984 11.8935C80.8089 11.8449 80.8146 11.7858 80.8146 11.7182Z" fill="white"/>
<path d="M87.5251 13.2619H86.6389L86.5923 12.5406H86.5646C86.2816 13.0895 85.7995 13.3639 85.1221 13.3639C84.5809 13.3639 84.1302 13.1514 83.7729 12.7264C83.4156 12.3015 83.2374 11.7498 83.2374 11.0724C83.2374 10.3454 83.4308 9.75655 83.8196 9.30682C84.1959 8.88759 84.6571 8.67797 85.2059 8.67797C85.809 8.67797 86.2311 8.88092 86.4712 9.28777H86.4903V6.70947H87.4898V12.0519C87.4898 12.4892 87.5012 12.8922 87.5251 13.2619ZM86.4903 11.3677V10.6188C86.4903 10.4893 86.4808 10.3844 86.4627 10.3044C86.4065 10.0643 86.2855 9.86231 86.1016 9.69938C85.9158 9.53645 85.6918 9.45451 85.4336 9.45451C85.0611 9.45451 84.7695 9.60219 84.5552 9.89851C84.3427 10.1948 84.235 10.5731 84.235 11.0352C84.235 11.4792 84.337 11.8394 84.5418 12.1166C84.7581 12.412 85.0497 12.5597 85.4146 12.5597C85.7424 12.5597 86.0044 12.4368 86.2035 12.19C86.396 11.9623 86.4903 11.6879 86.4903 11.3677Z" fill="white"/>
<path d="M96.0654 10.9788C96.0654 11.6696 95.8681 12.2355 95.4737 12.6795C95.0602 13.1359 94.5132 13.3637 93.8282 13.3637C93.1698 13.3637 92.6448 13.1455 92.2522 12.7072C91.8616 12.2698 91.6663 11.7182 91.6663 11.0531C91.6663 10.3576 91.8673 9.78682 92.2713 9.34377C92.6753 8.90071 93.2184 8.67871 93.9034 8.67871C94.5618 8.67871 95.0926 8.8969 95.4927 9.33424C95.8739 9.75919 96.0654 10.308 96.0654 10.9788ZM95.0306 11.0112C95.0306 10.5967 94.9411 10.2413 94.7629 9.94499C94.5523 9.58673 94.255 9.40761 93.8663 9.40761C93.4661 9.40761 93.1612 9.58673 92.9506 9.94499C92.7715 10.2413 92.6829 10.6024 92.6829 11.0293C92.6829 11.4438 92.7725 11.7992 92.9506 12.0955C93.1669 12.4537 93.468 12.6329 93.8568 12.6329C94.2379 12.6329 94.538 12.4509 94.7534 12.0859C94.9372 11.7839 95.0306 11.4257 95.0306 11.0112Z" fill="white"/>
<path d="M101.434 13.2616H100.437V10.6891C100.437 9.89633 100.136 9.49996 99.5305 9.49996C99.2342 9.49996 98.995 9.60858 98.8102 9.82677C98.6253 10.045 98.5329 10.3022 98.5329 10.5966V13.2607H97.5334V10.0535C97.5334 9.65908 97.522 9.23127 97.4982 8.7682H98.3747L98.4214 9.47042H98.4491C98.5663 9.25223 98.7397 9.07215 98.9664 8.92828C99.238 8.76058 99.54 8.67578 99.8726 8.67578C100.291 8.67578 100.64 8.81108 100.917 9.08263C101.263 9.41516 101.434 9.91157 101.434 10.5709V13.2616Z" fill="white"/>
<path d="M108.154 9.5184H107.055V11.7003C107.055 12.2549 107.25 12.5321 107.637 12.5321C107.816 12.5321 107.965 12.5169 108.082 12.4854L108.108 13.2429C107.91 13.3172 107.651 13.3544 107.332 13.3544C106.938 13.3544 106.631 13.2343 106.409 12.9942C106.186 12.7541 106.075 12.3501 106.075 11.7832V9.5184H105.419V8.77045H106.075V7.94723L107.054 7.65186V8.7695H108.153V9.5184H108.154Z" fill="white"/>
<path d="M113.441 13.2619H112.441V10.7084C112.441 9.90328 112.14 9.50024 111.537 9.50024C111.074 9.50024 110.758 9.73368 110.584 10.2006C110.555 10.2987 110.538 10.4187 110.538 10.5598V13.261H109.54V6.70947H110.538V9.4164H110.557C110.871 8.92379 111.322 8.67797 111.906 8.67797C112.319 8.67797 112.661 8.81327 112.933 9.08482C113.271 9.42306 113.441 9.92615 113.441 10.5912V13.2619Z" fill="white"/>
<path d="M118.894 10.8037C118.894 10.9829 118.88 11.1334 118.857 11.2563H115.862C115.875 11.7003 116.018 12.0386 116.295 12.273C116.549 12.4826 116.876 12.5874 117.276 12.5874C117.719 12.5874 118.123 12.5169 118.487 12.3749L118.643 13.0686C118.217 13.2534 117.716 13.3458 117.136 13.3458C116.44 13.3458 115.892 13.141 115.496 12.7313C115.098 12.3216 114.901 11.7718 114.901 11.082C114.901 10.4045 115.084 9.84046 115.455 9.39073C115.842 8.91052 116.365 8.67041 117.025 8.67041C117.671 8.67041 118.162 8.91052 118.494 9.39073C118.761 9.77185 118.894 10.2435 118.894 10.8037ZM117.941 10.5455C117.949 10.2492 117.883 9.99386 117.748 9.77852C117.574 9.50126 117.31 9.36215 116.953 9.36215C116.627 9.36215 116.361 9.49745 116.158 9.769C115.992 9.98528 115.894 10.2435 115.862 10.5455H117.941Z" fill="white"/>
</svg>
