<svg width="110" height="146" viewBox="0 0 110 146" fill="none" xmlns="http://www.w3.org/2000/svg">
<g clip-path="url(#clip0_4_46212)">
<path d="M110 -1.86618C110 -3.62886 108.57 -5.0578 106.806 -5.0578C105.041 -5.0578 103.611 -3.62886 103.611 -1.86618C103.611 -0.103496 105.041 1.32544 106.806 1.32544C108.57 1.32544 110 -0.103496 110 -1.86618Z" fill="white"/>
<path d="M110 27.064C110.002 26.4298 109.816 25.8092 109.466 25.2808C109.115 24.7524 108.615 24.3398 108.029 24.0955C107.443 23.8511 106.798 23.786 106.175 23.9082C105.553 24.0305 104.98 24.3346 104.531 24.7822C104.081 25.2297 103.774 25.8005 103.65 26.4223C103.525 27.0441 103.588 27.6889 103.83 28.275C104.072 28.8611 104.483 29.3622 105.011 29.7147C105.538 30.0673 106.159 30.2556 106.793 30.2556C107.642 30.2556 108.456 29.9197 109.057 29.3215C109.658 28.7233 109.997 27.9116 110 27.064Z" fill="white"/>
<path d="M110 55.994C110 55.3604 109.812 54.7409 109.46 54.2141C109.107 53.6873 108.607 53.2767 108.021 53.0342C107.435 52.7917 106.79 52.7284 106.168 52.852C105.546 52.9756 104.975 53.2807 104.526 53.7287C104.078 54.1768 103.772 54.7476 103.649 55.369C103.525 55.9905 103.588 56.6347 103.831 57.2201C104.074 57.8055 104.485 58.3057 105.012 58.6578C105.539 59.0098 106.159 59.1978 106.793 59.1978C107.215 59.1978 107.632 59.115 108.021 58.954C108.41 58.793 108.763 58.557 109.061 58.2595C109.359 57.962 109.595 57.6088 109.756 57.2201C109.917 56.8314 110 56.4147 110 55.994Z" fill="white"/>
<path d="M110 84.9361C110 83.1734 108.57 81.7444 106.806 81.7444C105.041 81.7444 103.611 83.1734 103.611 84.9361C103.611 86.6988 105.041 88.1277 106.806 88.1277C108.57 88.1277 110 86.6988 110 84.9361Z" fill="white"/>
<path d="M109.619 112.645C108.949 111.014 107.082 110.236 105.45 110.907C103.819 111.577 103.04 113.442 103.711 115.072C104.382 116.702 106.248 117.481 107.88 116.81C109.511 116.14 110.29 114.275 109.619 112.645Z" fill="white"/>
<path d="M103.648 142.796C103.645 143.431 103.832 144.052 104.183 144.581C104.534 145.109 105.035 145.522 105.621 145.766C106.208 146.01 106.854 146.074 107.477 145.951C108.1 145.828 108.672 145.522 109.121 145.074C109.571 144.625 109.876 144.053 109.999 143.43C110.123 142.808 110.058 142.163 109.814 141.577C109.57 140.991 109.157 140.491 108.628 140.139C108.099 139.788 107.477 139.602 106.842 139.605C105.996 139.608 105.185 139.945 104.587 140.543C103.988 141.141 103.651 141.951 103.648 142.796Z" fill="white"/>
<path d="M84.0942 -1.86618C84.0942 -3.62886 82.664 -5.0578 80.8998 -5.0578C79.1356 -5.0578 77.7054 -3.62886 77.7054 -1.86618C77.7054 -0.103496 79.1356 1.32544 80.8998 1.32544C82.664 1.32544 84.0942 -0.103496 84.0942 -1.86618Z" fill="white"/>
<path d="M84.0942 27.064C84.0966 26.4293 83.9103 25.8082 83.5589 25.2795C83.2075 24.7508 82.7068 24.3383 82.1204 24.0943C81.534 23.8503 80.8883 23.7858 80.2652 23.9091C79.642 24.0323 79.0696 24.3376 78.6204 24.7864C78.1712 25.2352 77.8656 25.8072 77.7423 26.4298C77.619 27.0524 77.6835 27.6975 77.9277 28.2834C78.1719 28.8693 78.5847 29.3695 79.1139 29.7206C79.643 30.0717 80.2646 30.258 80.8998 30.2556C81.7461 30.2524 82.5567 29.915 83.155 29.3172C83.7534 28.7193 84.091 27.9094 84.0942 27.064Z" fill="white"/>
<path d="M84.0942 55.994C84.0942 55.3598 83.9058 54.74 83.553 54.2129C83.2001 53.6858 82.6986 53.2751 82.112 53.033C81.5254 52.7909 80.88 52.7282 80.2577 52.8528C79.6354 52.9774 79.0641 53.2837 78.6161 53.733C78.1682 54.1822 77.8638 54.7543 77.7414 55.3765C77.6191 55.9988 77.6843 56.6433 77.9289 57.2285C78.1734 57.8137 78.5862 58.3131 79.1151 58.6637C79.644 59.0142 80.2651 59.2001 80.8998 59.1977C81.3203 59.1977 81.7367 59.1148 82.125 58.9536C82.5134 58.7925 82.8661 58.5564 83.1629 58.2587C83.4597 57.9611 83.6947 57.6078 83.8545 57.2192C84.0143 56.8306 84.0958 56.4141 84.0942 55.994Z" fill="white"/>
<path d="M84.0942 84.9361C84.0942 83.1734 82.664 81.7444 80.8998 81.7444C79.1356 81.7444 77.7054 83.1734 77.7054 84.9361C77.7054 86.6988 79.1356 88.1277 80.8998 88.1277C82.664 88.1277 84.0942 86.6988 84.0942 84.9361Z" fill="white"/>
<path d="M83.7229 112.642C83.0521 111.012 81.1855 110.233 79.5538 110.904C77.9221 111.574 77.1432 113.439 77.8141 115.069C78.485 116.699 80.3516 117.478 81.9832 116.807C83.6149 116.137 84.3938 114.272 83.7229 112.642Z" fill="white"/>
<path d="M84.0942 142.796C84.0942 142.162 83.9058 141.542 83.553 141.015C83.2001 140.488 82.6986 140.077 82.112 139.835C81.5254 139.593 80.88 139.53 80.2577 139.655C79.6354 139.78 79.0641 140.086 78.6161 140.535C78.1682 140.984 77.8638 141.556 77.7414 142.179C77.6191 142.801 77.6843 143.445 77.9289 144.031C78.1734 144.616 78.5862 145.115 79.1151 145.466C79.644 145.816 80.2651 146.002 80.8998 146C81.3203 146 81.7367 145.917 82.125 145.756C82.5134 145.595 82.8661 145.358 83.1629 145.061C83.4597 144.763 83.6947 144.41 83.8545 144.021C84.0143 143.633 84.0958 143.216 84.0942 142.796Z" fill="white"/>
<path d="M58.1883 -1.86618C58.1883 -3.62886 56.7581 -5.0578 54.9939 -5.0578C53.2297 -5.0578 51.7996 -3.62886 51.7996 -1.86618C51.7996 -0.103496 53.2297 1.32544 54.9939 1.32544C56.7581 1.32544 58.1883 -0.103496 58.1883 -1.86618Z" fill="white"/>
<path d="M58.2004 27.064C58.2028 26.4298 58.0168 25.8092 57.666 25.2808C57.3151 24.7524 56.8151 24.3398 56.2294 24.0955C55.6437 23.8511 54.9986 23.786 54.3759 23.9082C53.7531 24.0305 53.1806 24.3346 52.731 24.7822C52.2813 25.2297 51.9747 25.8005 51.85 26.4223C51.7253 27.0441 51.7881 27.6889 52.0304 28.275C52.2727 28.8611 52.6837 29.3622 53.2113 29.7147C53.7388 30.0673 54.3592 30.2556 54.9939 30.2556C55.8422 30.2556 56.656 29.9197 57.257 29.3215C57.8579 28.7233 58.1972 27.9116 58.2004 27.064Z" fill="white"/>
<path d="M58.2004 55.994C58.2004 55.3604 58.0124 54.7409 57.66 54.2141C57.3077 53.6873 56.8069 53.2767 56.221 53.0342C55.6351 52.7917 54.9904 52.7284 54.3684 52.852C53.7464 52.9756 53.175 53.2807 52.7266 53.7287C52.2782 54.1768 51.9728 54.7476 51.8491 55.369C51.7254 55.9905 51.7889 56.6347 52.0316 57.2201C52.2743 57.8055 52.6852 58.3057 53.2125 58.6578C53.7398 59.0098 54.3597 59.1978 54.9939 59.1978C55.415 59.1978 55.832 59.115 56.221 58.954C56.6101 58.793 56.9635 58.557 57.2612 58.2595C57.559 57.962 57.7952 57.6088 57.9563 57.2201C58.1175 56.8314 58.2004 56.4147 58.2004 55.994Z" fill="white"/>
<path d="M58.1883 84.9361C58.1883 83.1734 56.7581 81.7444 54.9939 81.7444C53.2297 81.7444 51.7996 83.1734 51.7996 84.9361C51.7996 86.6988 53.2297 88.1277 54.9939 88.1277C56.7581 88.1277 58.1883 86.6988 58.1883 84.9361Z" fill="white"/>
<path d="M57.8271 112.644C57.1563 111.014 55.2897 110.235 53.658 110.906C52.0263 111.576 51.2475 113.441 51.9183 115.071C52.5892 116.701 54.4557 117.48 56.0874 116.809C57.7191 116.139 58.498 114.274 57.8271 112.644Z" fill="white"/>
<path d="M58.2004 142.796C58.2004 142.163 58.0124 141.543 57.66 141.016C57.3077 140.489 56.8069 140.079 56.221 139.836C55.6351 139.594 54.9904 139.53 54.3684 139.654C53.7464 139.778 53.175 140.083 52.7266 140.531C52.2782 140.979 51.9728 141.55 51.8491 142.171C51.7254 142.793 51.7889 143.437 52.0316 144.022C52.2743 144.608 52.6852 145.108 53.2125 145.46C53.7398 145.812 54.3597 146 54.9939 146C55.8443 146 56.6599 145.662 57.2612 145.062C57.8626 144.461 58.2004 143.646 58.2004 142.796Z" fill="white"/>
<path d="M32.2946 -1.86618C32.2946 -3.62886 30.8645 -5.0578 29.1003 -5.0578C27.3361 -5.0578 25.9059 -3.62886 25.9059 -1.86618C25.9059 -0.103496 27.3361 1.32544 29.1003 1.32544C30.8645 1.32544 32.2946 -0.103496 32.2946 -1.86618Z" fill="white"/>
<path d="M32.2583 27.064C32.2607 26.4293 32.0743 25.8082 31.7229 25.2795C31.3715 24.7508 30.8708 24.3383 30.2844 24.0943C29.698 23.8503 29.0523 23.7858 28.4292 23.9091C27.8061 24.0323 27.2337 24.3376 26.7845 24.7864C26.3354 25.2352 26.0297 25.8072 25.9064 26.4298C25.783 27.0524 25.8475 27.6975 26.0917 28.2834C26.3359 28.8693 26.7488 29.3695 27.2779 29.7206C27.8071 30.0717 28.4287 30.258 29.0639 30.2556C29.9101 30.2524 30.7208 29.915 31.3192 29.3172C31.9176 28.7193 32.2551 27.9094 32.2583 27.064Z" fill="white"/>
<path d="M32.2583 55.994C32.2583 55.3598 32.0699 54.74 31.717 54.2129C31.3642 53.6858 30.8627 53.2751 30.2761 53.033C29.6895 52.7909 29.0442 52.7282 28.4218 52.8528C27.7995 52.9774 27.2282 53.2837 26.7803 53.733C26.3323 54.1822 26.0278 54.7543 25.9055 55.3765C25.7831 55.9988 25.8484 56.6433 26.0929 57.2285C26.3375 57.8137 26.7503 58.3131 27.2792 58.6637C27.8081 59.0142 28.4292 59.2001 29.0639 59.1977C29.4844 59.1977 29.9008 59.1148 30.2892 58.9536C30.6775 58.7925 31.0302 58.5564 31.3269 58.2587C31.6237 57.9611 31.8588 57.6078 32.0186 57.2192C32.1785 56.8306 32.2599 56.4141 32.2583 55.994Z" fill="white"/>
<path d="M32.2946 84.9361C32.2946 83.1734 30.8645 81.7444 29.1003 81.7444C27.3361 81.7444 25.9059 83.1734 25.9059 84.9361C25.9059 86.6988 27.3361 88.1277 29.1003 88.1277C30.8645 88.1277 32.2946 86.6988 32.2946 84.9361Z" fill="white"/>
<path d="M31.9306 112.641C31.2597 111.011 29.3931 110.232 27.7615 110.903C26.1298 111.573 25.3509 113.438 26.0217 115.068C26.6926 116.698 28.5592 117.477 30.1909 116.806C31.8225 116.136 32.6014 114.271 31.9306 112.641Z" fill="white"/>
<path d="M32.2583 142.796C32.2583 142.162 32.0699 141.542 31.717 141.015C31.3642 140.488 30.8627 140.077 30.2761 139.835C29.6895 139.593 29.0442 139.53 28.4218 139.655C27.7995 139.78 27.2282 140.086 26.7803 140.535C26.3323 140.984 26.0278 141.556 25.9055 142.179C25.7831 142.801 25.8484 143.445 26.0929 144.031C26.3375 144.616 26.7503 145.115 27.2792 145.466C27.8081 145.816 28.4292 146.002 29.0639 146C29.4844 146 29.9008 145.917 30.2892 145.756C30.6775 145.595 31.0302 145.358 31.3269 145.061C31.6237 144.763 31.8588 144.41 32.0186 144.021C32.1785 143.633 32.2599 143.216 32.2583 142.796Z" fill="white"/>
<path d="M6.38874 -1.86618C6.38874 -3.62886 4.95857 -5.0578 3.19437 -5.0578C1.43017 -5.0578 0 -3.62886 0 -1.86618C0 -0.103496 1.43017 1.32544 3.19437 1.32544C4.95857 1.32544 6.38874 -0.103496 6.38874 -1.86618Z" fill="white"/>
<path d="M6.40086 27.064C6.40325 26.4298 6.21727 25.8092 5.86639 25.2808C5.51552 24.7524 5.01552 24.3398 4.42983 24.0955C3.84414 23.8511 3.19909 23.786 2.5763 23.9082C1.95351 24.0305 1.38104 24.3346 0.931395 24.7822C0.481751 25.2297 0.175123 25.8005 0.0504171 26.4223C-0.0742891 27.0441 -0.0114934 27.6889 0.230837 28.275C0.473167 28.8611 0.884167 29.3622 1.41173 29.7147C1.93929 30.0673 2.55967 30.2556 3.19436 30.2556C4.04268 30.2556 4.85642 29.9197 5.4574 29.3215C6.05839 28.7233 6.39766 27.9116 6.40086 27.064Z" fill="white"/>
<path d="M6.40085 55.994C6.40085 55.3604 6.21281 54.7409 5.86048 54.2141C5.50815 53.6873 5.00738 53.2767 4.42147 53.0342C3.83557 52.7917 3.19082 52.7284 2.56883 52.852C1.94684 52.9756 1.37546 53.2807 0.927029 53.7287C0.478597 54.1768 0.173245 54.7476 0.0495223 55.369C-0.0741999 55.9905 -0.0106798 56.6347 0.23201 57.2201C0.4747 57.8055 0.885673 58.3057 1.41297 58.6578C1.94028 59.0098 2.56017 59.1978 3.19435 59.1978C3.61543 59.1978 4.03245 59.115 4.42147 58.954C4.8105 58.793 5.16393 58.557 5.46168 58.2595C5.75943 57.962 5.99563 57.6088 6.15677 57.2201C6.31791 56.8314 6.40085 56.4147 6.40085 55.994Z" fill="white"/>
<path d="M6.38874 84.9361C6.38874 83.1734 4.95857 81.7444 3.19437 81.7444C1.43017 81.7444 0 83.1734 0 84.9361C0 86.6988 1.43017 88.1277 3.19437 88.1277C4.95857 88.1277 6.38874 86.6988 6.38874 84.9361Z" fill="white"/>
<path d="M6.02267 112.643C5.35181 111.012 3.48522 110.234 1.85355 110.904C0.221876 111.575 -0.556956 113.44 0.113905 115.07C0.784766 116.7 2.65129 117.478 4.28296 116.808C5.91463 116.138 6.69353 114.273 6.02267 112.643Z" fill="white"/>
<path d="M6.40097 142.796C6.40097 142.163 6.21293 141.543 5.8606 141.016C5.50827 140.489 5.0075 140.079 4.4216 139.836C3.83569 139.594 3.19094 139.53 2.56895 139.654C1.94696 139.778 1.37558 140.083 0.927152 140.531C0.478719 140.979 0.173367 141.55 0.0496444 142.171C-0.0740779 142.793 -0.0105577 143.437 0.232132 144.022C0.474822 144.608 0.885795 145.108 1.4131 145.46C1.9404 145.812 2.5603 146 3.19448 146C4.04488 146 4.86047 145.662 5.4618 145.062C6.06313 144.461 6.40097 143.646 6.40097 142.796Z" fill="white"/>
</g>
<defs>
<clipPath id="clip0_4_46212">
<rect width="180" height="110" fill="white" transform="matrix(0 -1 1 0 0 146)"/>
</clipPath>
</defs>
</svg>
