<svg width="95" height="139" viewBox="0 0 95 139" fill="none" xmlns="http://www.w3.org/2000/svg">
<g clip-path="url(#clip0_4_46176)">
<path d="M94.5 3.19168C94.5 1.429 93.0698 6.62804e-05 91.3056 6.62804e-05C89.5414 6.62804e-05 88.1113 1.429 88.1113 3.19168C88.1113 4.95437 89.5414 6.3833 91.3056 6.3833C93.0698 6.3833 94.5 4.95437 94.5 3.19168Z" fill="white"/>
<path d="M94.5 32.1336C94.5 30.3709 93.0698 28.942 91.3056 28.942C89.5414 28.942 88.1113 30.3709 88.1113 32.1336C88.1113 33.8963 89.5414 35.3252 91.3056 35.3252C93.0698 35.3252 94.5 33.8963 94.5 32.1336Z" fill="white"/>
<path d="M94.5 61.0637C94.5024 60.4296 94.3164 59.809 93.9656 59.2806C93.6147 58.7521 93.1147 58.3396 92.529 58.0952C91.9433 57.8509 91.2983 57.7857 90.6755 57.908C90.0527 58.0302 89.4802 58.3343 89.0306 58.7819C88.5809 59.2295 88.2743 59.8003 88.1496 60.4221C88.0249 61.0439 88.0877 61.6886 88.33 62.2747C88.5723 62.8609 88.9833 63.3619 89.5109 63.7145C90.0385 64.0671 90.6589 64.2554 91.2935 64.2554C92.1419 64.2554 92.9556 63.9194 93.5566 63.3212C94.1576 62.723 94.4968 61.9113 94.5 61.0637Z" fill="white"/>
<path d="M94.5 89.994C94.5 89.3604 94.312 88.7409 93.9597 88.2141C93.6073 87.6873 93.1066 87.2767 92.5207 87.0342C91.9348 86.7917 91.29 86.7284 90.668 86.852C90.046 86.9756 89.4747 87.2807 89.0263 87.7287C88.5779 88.1768 88.2724 88.7476 88.1487 89.369C88.025 89.9905 88.0885 90.6347 88.3312 91.2201C88.5739 91.8055 88.9849 92.3057 89.5122 92.6578C90.0395 93.0098 90.6594 93.1978 91.2935 93.1978C91.7146 93.1978 92.1316 93.115 92.5207 92.954C92.9097 92.793 93.2631 92.557 93.5609 92.2595C93.8586 91.962 94.0949 91.6088 94.256 91.2201C94.4172 90.8314 94.5 90.4147 94.5 89.994Z" fill="white"/>
<path d="M94.5 118.936C94.5 117.174 93.0698 115.745 91.3056 115.745C89.5414 115.745 88.1113 117.174 88.1113 118.936C88.1113 120.699 89.5414 122.128 91.3056 122.128C93.0698 122.128 94.5 120.699 94.5 118.936Z" fill="white"/>
<path d="M68.5942 3.19168C68.5942 1.429 67.164 6.62804e-05 65.3998 6.62804e-05C63.6356 6.62804e-05 62.2054 1.429 62.2054 3.19168C62.2054 4.95437 63.6356 6.3833 65.3998 6.3833C67.164 6.3833 68.5942 4.95437 68.5942 3.19168Z" fill="white"/>
<path d="M68.5942 32.1336C68.5942 30.3709 67.164 28.942 65.3998 28.942C63.6356 28.942 62.2054 30.3709 62.2054 32.1336C62.2054 33.8963 63.6356 35.3252 65.3998 35.3252C67.164 35.3252 68.5942 33.8963 68.5942 32.1336Z" fill="white"/>
<path d="M68.5942 61.0637C68.5966 60.4291 68.4103 59.8079 68.0589 59.2792C67.7075 58.7505 67.2068 58.338 66.6204 58.094C66.034 57.8501 65.3883 57.7856 64.7652 57.9088C64.142 58.0321 63.5696 58.3374 63.1204 58.7862C62.6712 59.2349 62.3656 59.807 62.2423 60.4296C62.119 61.0522 62.1835 61.6972 62.4277 62.2831C62.6719 62.869 63.0847 63.3693 63.6139 63.7204C64.143 64.0715 64.7646 64.2577 65.3998 64.2553C66.2461 64.2522 67.0567 63.9148 67.655 63.3169C68.2534 62.7191 68.591 61.9092 68.5942 61.0637Z" fill="white"/>
<path d="M68.5942 89.994C68.5942 89.3598 68.4058 88.74 68.053 88.2129C67.7001 87.6858 67.1986 87.2751 66.612 87.033C66.0254 86.7909 65.38 86.7282 64.7577 86.8528C64.1354 86.9774 63.5641 87.2837 63.1161 87.733C62.6682 88.1822 62.3638 88.7543 62.2414 89.3765C62.1191 89.9988 62.1843 90.6433 62.4289 91.2285C62.6734 91.8137 63.0862 92.3131 63.6151 92.6637C64.144 93.0142 64.7651 93.2001 65.3998 93.1977C65.8203 93.1977 66.2367 93.1148 66.625 92.9536C67.0134 92.7925 67.3661 92.5564 67.6629 92.2587C67.9597 91.9611 68.1947 91.6078 68.3545 91.2192C68.5143 90.8306 68.5958 90.4141 68.5942 89.994Z" fill="white"/>
<path d="M68.5942 118.936C68.5942 117.174 67.164 115.745 65.3998 115.745C63.6356 115.745 62.2054 117.174 62.2054 118.936C62.2054 120.699 63.6356 122.128 65.3998 122.128C67.164 122.128 68.5942 120.699 68.5942 118.936Z" fill="white"/>
<path d="M42.6883 3.19168C42.6883 1.429 41.2581 6.62804e-05 39.4939 6.62804e-05C37.7297 6.62804e-05 36.2996 1.429 36.2996 3.19168C36.2996 4.95437 37.7297 6.3833 39.4939 6.3833C41.2581 6.3833 42.6883 4.95437 42.6883 3.19168Z" fill="white"/>
<path d="M42.6883 32.1336C42.6883 30.3709 41.2581 28.942 39.4939 28.942C37.7297 28.942 36.2996 30.3709 36.2996 32.1336C36.2996 33.8963 37.7297 35.3252 39.4939 35.3252C41.2581 35.3252 42.6883 33.8963 42.6883 32.1336Z" fill="white"/>
<path d="M42.7004 61.0637C42.7028 60.4296 42.5168 59.809 42.166 59.2806C41.8151 58.7521 41.3151 58.3396 40.7294 58.0952C40.1437 57.8509 39.4986 57.7857 38.8759 57.908C38.2531 58.0302 37.6806 58.3343 37.231 58.7819C36.7813 59.2295 36.4747 59.8003 36.35 60.4221C36.2253 61.0439 36.2881 61.6886 36.5304 62.2747C36.7727 62.8609 37.1837 63.3619 37.7113 63.7145C38.2388 64.0671 38.8592 64.2554 39.4939 64.2554C40.3422 64.2554 41.156 63.9194 41.757 63.3212C42.3579 62.723 42.6972 61.9113 42.7004 61.0637Z" fill="white"/>
<path d="M42.7004 89.994C42.7004 89.3604 42.5124 88.7409 42.16 88.2141C41.8077 87.6873 41.3069 87.2767 40.721 87.0342C40.1351 86.7917 39.4904 86.7284 38.8684 86.852C38.2464 86.9756 37.675 87.2807 37.2266 87.7287C36.7782 88.1768 36.4728 88.7476 36.3491 89.369C36.2254 89.9905 36.2889 90.6347 36.5316 91.2201C36.7743 91.8055 37.1852 92.3057 37.7125 92.6578C38.2398 93.0098 38.8597 93.1978 39.4939 93.1978C39.915 93.1978 40.332 93.115 40.721 92.954C41.1101 92.793 41.4635 92.557 41.7612 92.2595C42.059 91.962 42.2952 91.6088 42.4563 91.2201C42.6175 90.8314 42.7004 90.4147 42.7004 89.994Z" fill="white"/>
<path d="M42.6883 118.936C42.6883 117.174 41.2581 115.745 39.4939 115.745C37.7297 115.745 36.2996 117.174 36.2996 118.936C36.2996 120.699 37.7297 122.128 39.4939 122.128C41.2581 122.128 42.6883 120.699 42.6883 118.936Z" fill="white"/>
<path d="M16.7946 3.19168C16.7946 1.429 15.3644 6.62804e-05 13.6002 6.62804e-05C11.836 6.62804e-05 10.4058 1.429 10.4058 3.19168C10.4058 4.95437 11.836 6.3833 13.6002 6.3833C15.3644 6.3833 16.7946 4.95437 16.7946 3.19168Z" fill="white"/>
<path d="M16.7946 32.1336C16.7946 30.3709 15.3644 28.942 13.6002 28.942C11.836 28.942 10.4058 30.3709 10.4058 32.1336C10.4058 33.8963 11.836 35.3252 13.6002 35.3252C15.3644 35.3252 16.7946 33.8963 16.7946 32.1336Z" fill="white"/>
<path d="M16.7583 61.0637C16.7607 60.4291 16.5743 59.8079 16.2229 59.2792C15.8715 58.7505 15.3708 58.338 14.7844 58.094C14.198 57.8501 13.5523 57.7856 12.9292 57.9088C12.3061 58.0321 11.7337 58.3374 11.2845 58.7862C10.8354 59.2349 10.5297 59.807 10.4064 60.4296C10.283 61.0522 10.3475 61.6972 10.5917 62.2831C10.8359 62.869 11.2488 63.3693 11.7779 63.7204C12.3071 64.0715 12.9287 64.2577 13.5639 64.2553C14.4101 64.2522 15.2208 63.9148 15.8192 63.3169C16.4176 62.7191 16.7551 61.9092 16.7583 61.0637Z" fill="white"/>
<path d="M16.7583 89.994C16.7583 89.3598 16.5699 88.74 16.217 88.2129C15.8642 87.6858 15.3627 87.2751 14.7761 87.033C14.1895 86.7909 13.5442 86.7282 12.9218 86.8528C12.2995 86.9774 11.7282 87.2837 11.2803 87.733C10.8323 88.1822 10.5278 88.7543 10.4055 89.3765C10.2831 89.9988 10.3484 90.6433 10.5929 91.2285C10.8375 91.8137 11.2503 92.3131 11.7792 92.6637C12.3081 93.0142 12.9292 93.2001 13.5639 93.1977C13.9844 93.1977 14.4008 93.1148 14.7892 92.9536C15.1775 92.7925 15.5302 92.5564 15.8269 92.2587C16.1237 91.9611 16.3588 91.6078 16.5186 91.2192C16.6785 90.8306 16.7599 90.4141 16.7583 89.994Z" fill="white"/>
<path d="M16.7946 118.936C16.7946 117.174 15.3644 115.745 13.6002 115.745C11.836 115.745 10.4058 117.174 10.4058 118.936C10.4058 120.699 11.836 122.128 13.6002 122.128C15.3644 122.128 16.7946 120.699 16.7946 118.936Z" fill="white"/>
</g>
<defs>
<clipPath id="clip0_4_46176">
<rect width="180" height="110" fill="white" transform="matrix(0 -1 1 0 -15.5 180)"/>
</clipPath>
</defs>
</svg>
