<svg width="20" height="20" viewBox="0 0 20 20" fill="none" xmlns="http://www.w3.org/2000/svg">
<path fill-rule="evenodd" clip-rule="evenodd" d="M2.09597 8.895C1.95084 9.0401 1.83571 9.21236 1.75716 9.40196C1.67861 9.59156 1.63818 9.79478 1.63818 10C1.63818 10.2052 1.67861 10.4084 1.75716 10.598C1.83571 10.7876 1.95084 10.9599 2.09597 11.105L7.40847 16.4167C7.70181 16.7092 8.09931 16.8742 8.51347 16.8742H16.2501C16.9132 16.8742 17.5491 16.6108 18.0179 16.1419C18.4867 15.6731 18.7501 15.0372 18.7501 14.3742V5.625C18.7501 4.96196 18.4867 4.32607 18.0179 3.85723C17.5491 3.38839 16.9132 3.125 16.2501 3.125H8.51347C8.09931 3.125 7.70181 3.29 7.40847 3.58333L2.09597 8.895ZM10.4418 7.68333C10.3846 7.62193 10.3156 7.57268 10.2389 7.53852C10.1623 7.50436 10.0795 7.48599 9.99558 7.48451C9.91166 7.48303 9.8283 7.49846 9.75048 7.5299C9.67265 7.56133 9.60196 7.60812 9.54261 7.66747C9.48326 7.72682 9.43647 7.79751 9.40504 7.87534C9.3736 7.95316 9.35817 8.03652 9.35965 8.12044C9.36113 8.20435 9.3795 8.28712 9.41366 8.36378C9.44782 8.44045 9.49707 8.50945 9.55848 8.56667L10.9918 10L9.55848 11.4333C9.49707 11.4906 9.44782 11.5596 9.41366 11.6362C9.3795 11.7129 9.36113 11.7956 9.35965 11.8796C9.35817 11.9635 9.3736 12.0468 9.40504 12.1247C9.43647 12.2025 9.48326 12.2732 9.54261 12.3325C9.60196 12.3919 9.67265 12.4387 9.75048 12.4701C9.8283 12.5015 9.91166 12.517 9.99558 12.5155C10.0795 12.514 10.1623 12.4956 10.2389 12.4615C10.3156 12.4273 10.3846 12.3781 10.4418 12.3167L11.8751 10.8833L13.3085 12.3167C13.3657 12.3781 13.4347 12.4273 13.5114 12.4615C13.588 12.4956 13.6708 12.514 13.7547 12.5155C13.8386 12.517 13.922 12.5015 13.9998 12.4701C14.0776 12.4387 14.1483 12.3919 14.2077 12.3325C14.267 12.2732 14.3138 12.2025 14.3452 12.1247C14.3767 12.0468 14.3921 11.9635 14.3906 11.8796C14.3892 11.7956 14.3708 11.7129 14.3366 11.6362C14.3025 11.5596 14.2532 11.4906 14.1918 11.4333L12.7585 10L14.1918 8.56667C14.2532 8.50945 14.3025 8.44045 14.3366 8.36378C14.3708 8.28712 14.3892 8.20435 14.3906 8.12044C14.3921 8.03652 14.3767 7.95316 14.3452 7.87534C14.3138 7.79751 14.267 7.72682 14.2077 7.66747C14.1483 7.60812 14.0776 7.56133 13.9998 7.5299C13.922 7.49846 13.8386 7.48303 13.7547 7.48451C13.6708 7.48599 13.588 7.50436 13.5114 7.53852C13.4347 7.57268 13.3657 7.62193 13.3085 7.68333L11.8751 9.11667L10.4418 7.68333Z" fill="#EF4444"/>
</svg>
