<svg width="18" height="18" viewBox="0 0 18 18" fill="none" xmlns="http://www.w3.org/2000/svg">
<path d="M1.125 6.50293V12.9379C1.125 13.5347 1.36205 14.107 1.78401 14.5289C2.20597 14.9509 2.77826 15.1879 3.375 15.1879H14.625C15.2217 15.1879 15.794 14.9509 16.216 14.5289C16.6379 14.107 16.875 13.5347 16.875 12.9379V6.50293L10.179 10.6227C9.82443 10.8408 9.4163 10.9563 9 10.9563C8.5837 10.9563 8.17557 10.8408 7.821 10.6227L1.125 6.50293Z" fill="#9CA1AA"/>
<path d="M16.875 5.181V5.0625C16.875 4.46576 16.6379 3.89347 16.216 3.47151C15.794 3.04955 15.2217 2.8125 14.625 2.8125H3.375C2.77826 2.8125 2.20597 3.04955 1.78401 3.47151C1.36205 3.89347 1.125 4.46576 1.125 5.0625V5.181L8.4105 9.6645C8.58778 9.77357 8.79185 9.83132 9 9.83132C9.20815 9.83132 9.41222 9.77357 9.5895 9.6645L16.875 5.181Z" fill="#9CA1AA"/>
</svg>
