<svg width="17" height="16" viewBox="0 0 17 16" fill="none" xmlns="http://www.w3.org/2000/svg">
<path d="M6.03125 1.24995C5.65829 1.24995 5.3006 1.39811 5.03688 1.66183C4.77316 1.92555 4.625 2.28324 4.625 2.6562C4.625 3.02916 4.77316 3.38685 5.03688 3.65057C5.3006 3.91429 5.65829 4.06245 6.03125 4.06245H7.4375V7.43745H1.53125C1.15829 7.43745 0.800604 7.28929 0.536881 7.02557C0.273158 6.76185 0.125 6.40416 0.125 6.0312V5.4687C0.125 4.6917 0.755 4.06245 1.53125 4.06245H3.926C3.56136 3.52077 3.42016 2.85912 3.5319 2.21578C3.64364 1.57243 3.99968 0.997147 4.52562 0.610147C5.05156 0.223146 5.70671 0.0543656 6.35417 0.139073C7.00164 0.223781 7.59132 0.555422 8 1.0647C8.40868 0.555422 8.99836 0.223781 9.64583 0.139073C10.2933 0.0543656 10.9484 0.223146 11.4744 0.610147C12.0003 0.997147 12.3564 1.57243 12.4681 2.21578C12.5798 2.85912 12.4386 3.52077 12.074 4.06245H15.0312C15.8075 4.06245 16.4375 4.69245 16.4375 5.4687V6.0312C16.4375 6.8082 15.8075 7.43745 15.0312 7.43745H8.5625V4.06245H9.96875C10.2469 4.06245 10.5188 3.97997 10.75 3.82545C10.9813 3.67093 11.1615 3.45131 11.268 3.19435C11.3744 2.93739 11.4022 2.65464 11.348 2.38185C11.2937 2.10907 11.1598 1.8585 10.9631 1.66183C10.7665 1.46516 10.5159 1.33123 10.2431 1.27697C9.97031 1.22271 9.68756 1.25056 9.4306 1.35699C9.17364 1.46343 8.95402 1.64367 8.7995 1.87493C8.64497 2.10619 8.5625 2.37807 8.5625 2.6562V4.06245H7.4375V2.6562C7.4375 1.8792 6.8075 1.24995 6.03125 1.24995ZM7.4375 8.56245H1.25V13.625C1.25 14.0725 1.42779 14.5017 1.74426 14.8182C2.06072 15.1347 2.48995 15.3125 2.9375 15.3125H7.4375V8.56245ZM8.5625 8.56245V15.3125H13.625C14.0726 15.3125 14.5018 15.1347 14.8182 14.8182C15.1347 14.5017 15.3125 14.0725 15.3125 13.625V8.56245H8.5625Z" fill="#9CA1AA"/>
</svg>
