<svg width="135" height="40" viewBox="0 0 135 40" fill="none" xmlns="http://www.w3.org/2000/svg">
<path d="M130 0H5C2.23858 0 0 2.23858 0 5V35C0 37.7614 2.23858 40 5 40H130C132.761 40 135 37.7614 135 35V5C135 2.23858 132.761 0 130 0Z" fill="#1C1C1E"/>
<path d="M68.1401 21.7496C67.3004 21.7536 66.4807 22.0062 65.7844 22.4756C65.0881 22.945 64.5465 23.6101 64.2279 24.387C63.9093 25.164 63.828 26.0179 63.9942 26.841C64.1605 27.6641 64.5668 28.4195 65.162 29.0118C65.7571 29.6042 66.5144 30.007 67.3383 30.1694C68.1622 30.3317 69.0157 30.2464 69.7911 29.9242C70.5665 29.6019 71.2291 29.0572 71.6952 28.3587C72.1613 27.6602 72.4101 26.8393 72.4101 25.9996C72.4183 25.4376 72.3132 24.8796 72.1013 24.359C71.8893 23.8383 71.5748 23.3657 71.1764 22.9691C70.7779 22.5726 70.3038 22.2603 69.7822 22.0508C69.2606 21.8412 68.7021 21.7388 68.1401 21.7496ZM68.1401 28.5796C67.6237 28.6157 67.1083 28.4957 66.6611 28.235C66.2138 27.9744 65.8553 27.5852 65.6321 27.1181C65.409 26.651 65.3315 26.1275 65.4098 25.6158C65.4881 25.1041 65.7185 24.6277 66.0711 24.2487C66.4237 23.8696 66.8821 23.6054 67.3869 23.4904C67.8916 23.3754 68.4193 23.4149 68.9013 23.6037C69.3833 23.7926 69.7973 24.122 70.0896 24.5493C70.3819 24.9766 70.5388 25.482 70.5401 25.9996C70.5562 26.3276 70.5065 26.6556 70.3938 26.9641C70.2812 27.2725 70.1079 27.5554 69.8842 27.7958C69.6606 28.0363 69.391 28.2295 69.0914 28.3641C68.7919 28.4987 68.4684 28.572 68.1401 28.5796ZM58.8301 21.7496C57.99 21.7516 57.1692 22.0025 56.4717 22.4707C55.7741 22.9389 55.2309 23.6034 54.9108 24.3801C54.5906 25.1569 54.5079 26.0111 54.673 26.8349C54.8381 27.6586 55.2437 28.415 55.8384 29.0084C56.4332 29.6017 57.1905 30.0055 58.0146 30.1687C58.8388 30.3319 59.6928 30.2471 60.4688 29.9252C61.2448 29.6032 61.908 29.0585 62.3745 28.3598C62.8411 27.6611 63.0901 26.8398 63.0901 25.9996C63.0982 25.4376 62.9932 24.8796 62.7813 24.359C62.5693 23.8383 62.2548 23.3657 61.8564 22.9691C61.4579 22.5726 60.9838 22.2603 60.4622 22.0508C59.9406 21.8412 59.3821 21.7388 58.8201 21.7496H58.8301ZM58.8301 28.5796C58.3134 28.6178 57.7972 28.4995 57.3487 28.2402C56.9002 27.9809 56.5402 27.5925 56.3155 27.1257C56.0907 26.6589 56.0118 26.1353 56.0888 25.623C56.1658 25.1106 56.3953 24.6334 56.7474 24.2533C57.0995 23.8733 57.5578 23.608 58.0628 23.4921C58.5677 23.3761 59.0959 23.4149 59.5785 23.6033C60.0611 23.7917 60.4757 24.1211 60.7685 24.5485C61.0613 24.9759 61.2187 25.4816 61.2201 25.9996C61.2362 26.3276 61.1865 26.6556 61.0738 26.9641C60.9612 27.2725 60.7879 27.5554 60.5642 27.7958C60.3406 28.0363 60.071 28.2295 59.7714 28.3641C59.4719 28.4987 59.1484 28.572 58.8201 28.5796H58.8301ZM47.7401 23.0596V24.8596H52.0601C51.9924 25.7074 51.6399 26.5074 51.0601 27.1296C50.6279 27.5699 50.1083 27.9147 49.5348 28.1421C48.9613 28.3694 48.3465 28.4742 47.7301 28.4496C46.4571 28.4496 45.2362 27.9439 44.336 27.0437C43.4358 26.1436 42.9301 24.9227 42.9301 23.6496C42.9301 22.3766 43.4358 21.1557 44.336 20.2555C45.2362 19.3553 46.4571 18.8496 47.7301 18.8496C48.9479 18.8298 50.1239 19.2937 51.0001 20.1396L52.2701 18.8696C51.6786 18.2707 50.9728 17.7965 50.1947 17.4753C49.4166 17.1541 48.5819 16.9923 47.7401 16.9996C46.8511 16.965 45.9643 17.1103 45.1327 17.4266C44.3012 17.7429 43.5421 18.2239 42.9009 18.8406C42.2596 19.4574 41.7495 20.1972 41.4011 21.0158C41.0527 21.8344 40.873 22.715 40.873 23.6046C40.873 24.4943 41.0527 25.3748 41.4011 26.1934C41.7495 27.012 42.2596 27.7519 42.9009 28.3686C43.5421 28.9854 44.3012 29.4663 45.1327 29.7827C45.9643 30.099 46.8511 30.2442 47.7401 30.2096C48.5961 30.2483 49.4504 30.1032 50.2455 29.7841C51.0407 29.465 51.7583 28.9793 52.3501 28.3596C53.3978 27.2086 53.9571 25.6954 53.9101 24.1396C53.9133 23.7606 53.8798 23.3822 53.8101 23.0096L47.7401 23.0596ZM93.0501 24.4596C92.7893 23.6924 92.3016 23.0224 91.6516 22.5385C91.0016 22.0545 90.2199 21.7795 89.4101 21.7496C88.8631 21.7486 88.3217 21.8597 87.8193 22.0762C87.317 22.2926 86.8644 22.6098 86.4895 23.0082C86.1146 23.4065 85.8254 23.8775 85.6397 24.392C85.4541 24.9065 85.3759 25.4537 85.4101 25.9996C85.3979 26.5585 85.4986 27.1142 85.706 27.6333C85.9133 28.1525 86.2232 28.6245 86.6171 29.0212C87.0111 29.4179 87.4809 29.7311 87.9985 29.9422C88.5162 30.1533 89.0711 30.2578 89.6301 30.2496C90.3296 30.2534 91.0191 30.0836 91.6369 29.7555C92.2547 29.4275 92.7815 28.9513 93.1701 28.3696L91.7201 27.3696C91.5037 27.7304 91.1973 28.0288 90.8309 28.2357C90.4646 28.4425 90.0508 28.5507 89.6301 28.5496C89.1969 28.5661 88.7688 28.4519 88.4014 28.2219C88.034 27.9918 87.7444 27.6565 87.5701 27.2596L93.2601 24.9096L93.0501 24.4596ZM87.2501 25.8796C87.2298 25.5703 87.2715 25.2601 87.3726 24.9671C87.4737 24.6741 87.6323 24.4042 87.8391 24.1732C88.0458 23.9423 88.2966 23.7549 88.5766 23.6221C88.8567 23.4892 89.1604 23.4136 89.4701 23.3996C89.7927 23.3784 90.1144 23.4523 90.3953 23.6123C90.6762 23.7723 90.9039 24.0113 91.0501 24.2996L87.2501 25.8796ZM82.6301 29.9996H84.5001V17.4996H82.6301V29.9996ZM79.5701 22.6996H79.5001C79.2183 22.3845 78.873 22.1326 78.487 21.9602C78.101 21.7879 77.6829 21.6991 77.2601 21.6996C76.1673 21.7526 75.1367 22.2241 74.3821 23.0162C73.6274 23.8084 73.2064 24.8605 73.2064 25.9546C73.2064 27.0487 73.6274 28.1009 74.3821 28.893C75.1367 29.6852 76.1673 30.1566 77.2601 30.2096C77.6839 30.2168 78.104 30.1309 78.491 29.9581C78.8781 29.7854 79.2225 29.5299 79.5001 29.2096H79.5601V29.8196C79.5601 31.4496 78.6901 32.3196 77.2901 32.3196C76.8238 32.3087 76.3713 32.1593 75.9902 31.8904C75.6091 31.6215 75.3167 31.2453 75.1501 30.8096L73.5201 31.4896C73.8269 32.236 74.3497 32.8737 75.0214 33.3209C75.6931 33.7681 76.4831 34.0045 77.2901 33.9996C79.4801 33.9996 81.2901 32.7096 81.2901 29.5696V21.9996H79.5701V22.6996ZM77.4301 28.5796C76.785 28.5228 76.1847 28.2264 75.7474 27.7488C75.31 27.2712 75.0675 26.6472 75.0675 25.9996C75.0675 25.3521 75.31 24.728 75.7474 24.2505C76.1847 23.7729 76.785 23.4765 77.4301 23.4196C77.7499 23.436 78.0632 23.5163 78.3516 23.6557C78.6399 23.795 78.8974 23.9907 79.1089 24.2311C79.3205 24.4716 79.4818 24.7519 79.5833 25.0556C79.6848 25.3593 79.7245 25.6803 79.7001 25.9996C79.7274 26.3203 79.6893 26.6432 79.5883 26.9488C79.4872 27.2544 79.3252 27.5362 79.1121 27.7774C78.8989 28.0186 78.6391 28.214 78.3483 28.3519C78.0575 28.4898 77.7417 28.5673 77.4201 28.5796H77.4301ZM101.81 17.4996H97.3401V29.9996H99.2101V25.2596H101.82C102.353 25.2979 102.888 25.226 103.392 25.0484C103.896 24.8707 104.358 24.5912 104.749 24.2271C105.14 23.8631 105.452 23.4224 105.665 22.9325C105.879 22.4426 105.989 21.914 105.989 21.3796C105.989 20.8453 105.879 20.3167 105.665 19.8268C105.452 19.3369 105.14 18.8962 104.749 18.5321C104.358 18.1681 103.896 17.8885 103.392 17.7109C102.888 17.5333 102.353 17.4613 101.82 17.4996H101.81ZM101.81 23.4996H99.2001V19.2396H101.85C102.419 19.2396 102.965 19.4656 103.367 19.8679C103.769 20.2702 103.995 20.8157 103.995 21.3846C103.995 21.9535 103.769 22.4991 103.367 22.9014C102.965 23.3036 102.419 23.5296 101.85 23.5296L101.81 23.4996ZM113.34 21.6996C112.659 21.6589 111.981 21.818 111.39 22.1574C110.798 22.4967 110.319 23.0014 110.01 23.6096L111.67 24.2996C111.834 23.998 112.082 23.7504 112.383 23.5871C112.685 23.4237 113.028 23.3517 113.37 23.3796C113.607 23.3519 113.848 23.3717 114.078 23.438C114.307 23.5042 114.521 23.6155 114.708 23.7653C114.894 23.9152 115.048 24.1007 115.162 24.3109C115.276 24.5211 115.346 24.7518 115.37 24.9896V25.1196C114.769 24.8016 114.1 24.6368 113.42 24.6396C111.63 24.6396 109.82 25.6396 109.82 27.4496C109.838 27.8356 109.933 28.214 110.099 28.5627C110.266 28.9113 110.5 29.223 110.789 29.4794C111.078 29.7358 111.416 29.9316 111.782 30.0553C112.148 30.179 112.535 30.2281 112.92 30.1996C113.391 30.2334 113.862 30.1399 114.285 29.9287C114.707 29.7176 115.065 29.3967 115.32 28.9996H115.38V29.9996H117.18V25.1896C117.18 22.9996 115.52 21.7296 113.39 21.7296L113.34 21.6996ZM113.11 28.5496C112.5 28.5496 111.65 28.2396 111.65 27.4896C111.65 26.4896 112.71 26.1596 113.65 26.1596C114.244 26.145 114.831 26.29 115.35 26.5796C115.288 27.121 115.031 27.6216 114.629 27.9891C114.227 28.3566 113.705 28.5664 113.16 28.5796L113.11 28.5496ZM123.74 21.9996L121.6 27.4196H121.54L119.32 21.9996H117.32L120.65 29.5796L118.75 33.7896H120.7L125.82 21.9996H123.74ZM106.93 29.9996H108.8V17.4996H106.93V29.9996Z" fill="white"/>
<path d="M47.3576 10.3024C47.3746 10.6692 47.3169 11.0356 47.188 11.3794C47.059 11.7232 46.8616 12.0372 46.6076 12.3024C46.324 12.597 45.9815 12.8285 45.6024 12.9818C45.2234 13.1352 44.8163 13.2069 44.4076 13.1924C43.7876 13.1875 43.1828 12.9998 42.669 12.6527C42.1552 12.3057 41.7553 11.8147 41.5193 11.2413C41.2833 10.6679 41.2218 10.0376 41.3425 9.42946C41.4631 8.82128 41.7606 8.26224 42.1976 7.82237C42.4848 7.52916 42.8291 7.298 43.2093 7.14319C43.5894 6.98838 43.9973 6.91323 44.4076 6.92237C44.8304 6.92097 45.2489 7.00604 45.6376 7.17237C45.9995 7.31833 46.3216 7.54793 46.5776 7.84237L46.0476 8.37237C45.848 8.13497 45.5959 7.94723 45.3113 7.82401C45.0267 7.70079 44.7173 7.64545 44.4076 7.66237C44.0952 7.66084 43.7858 7.7224 43.4978 7.84336C43.2098 7.96432 42.9492 8.1422 42.7316 8.36631C42.5141 8.59043 42.344 8.85618 42.2316 9.14762C42.1192 9.43906 42.0668 9.7502 42.0776 10.0624C42.071 10.5285 42.2027 10.9861 42.4559 11.3775C42.7092 11.7689 43.0727 12.0766 43.5005 12.2616C43.9284 12.4467 44.4015 12.5009 44.8601 12.4174C45.3188 12.3339 45.7424 12.1164 46.0776 11.7924C46.3853 11.4589 46.5628 11.0259 46.5776 10.5724H44.4076V9.85237H47.3176C47.3443 10.0009 47.3577 10.1515 47.3576 10.3024ZM51.9376 7.80237H49.2376V9.70237H51.6976V10.4224H49.2376V12.3224H51.9376V13.0624H48.4376V7.06237H51.9376V7.80237ZM55.2176 13.0624H54.4476V7.80237H52.7676V7.06237H56.9376V7.80237H55.2176V13.0624ZM59.8776 13.0624V7.06237H60.6476V13.0624H59.8776ZM64.0676 13.0624H63.2976V7.80237H61.6176V7.06237H65.7376V7.80237H64.0676V13.0624ZM73.5476 12.2824C72.963 12.8637 72.1721 13.19 71.3476 13.19C70.5231 13.19 69.7322 12.8637 69.1476 12.2824C68.5794 11.6809 68.2628 10.8848 68.2628 10.0574C68.2628 9.22994 68.5794 8.43385 69.1476 7.83237C69.4357 7.54212 69.7785 7.31175 70.1561 7.15454C70.5336 6.99734 70.9386 6.91641 71.3476 6.91641C71.7566 6.91641 72.1616 6.99734 72.5391 7.15454C72.9167 7.31175 73.2595 7.54212 73.5476 7.83237C74.1181 8.4327 74.4362 9.22922 74.4362 10.0574C74.4362 10.8855 74.1181 11.682 73.5476 12.2824ZM69.7176 11.7824C70.1505 12.2135 70.7366 12.4555 71.3476 12.4555C71.9586 12.4555 72.5447 12.2135 72.9776 11.7824C73.4048 11.3114 73.6415 10.6983 73.6415 10.0624C73.6415 9.42648 73.4048 8.81336 72.9776 8.34237C72.5447 7.91125 71.9586 7.6692 71.3476 7.6692C70.7366 7.6692 70.1505 7.91125 69.7176 8.34237C69.2904 8.81336 69.0537 9.42648 69.0537 10.0624C69.0537 10.6983 69.2904 11.3114 69.7176 11.7824ZM75.5176 13.0624V7.06237H76.4576L79.3776 11.7324V7.06237H80.1476V13.0624H79.3476L76.2976 8.17237V13.0624H75.5176Z" fill="white"/>
<path fill-rule="evenodd" clip-rule="evenodd" d="M71.3476 7.01641C70.9518 7.01641 70.5599 7.09473 70.1945 7.24686C69.8295 7.39884 69.4981 7.62147 69.2194 7.90195C68.6693 8.48475 68.3628 9.25589 68.3628 10.0574C68.3628 10.8588 68.6692 11.6298 69.2192 12.2126C69.785 12.7746 70.5501 13.09 71.3476 13.09C72.1452 13.09 72.9103 12.7745 73.4761 12.2125C74.0283 11.6308 74.3362 10.8594 74.3362 10.0574C74.3362 9.25524 74.0282 8.48373 73.4759 7.90208C73.1972 7.62154 72.8658 7.39886 72.5007 7.24686C72.1353 7.09473 71.7434 7.01641 71.3476 7.01641ZM70.1176 7.06223C70.5074 6.89995 70.9254 6.81641 71.3476 6.81641C71.7698 6.81641 72.1878 6.89995 72.5776 7.06223C72.9673 7.2245 73.3211 7.4623 73.6186 7.76192L73.6201 7.76347C74.2083 8.38239 74.5362 9.20358 74.5362 10.0574C74.5362 10.9112 74.2082 11.7323 73.6201 12.3513L73.6181 12.3533C73.0148 12.9533 72.1985 13.29 71.3476 13.29C70.4967 13.29 69.6804 12.9533 69.0771 12.3533L69.0749 12.3511C68.4891 11.731 68.1628 10.9104 68.1628 10.0574C68.1628 9.2044 68.4891 8.38374 69.0749 7.7637L69.0766 7.7619C69.3741 7.46228 69.7279 7.2245 70.1176 7.06223ZM44.4054 7.02235C44.0087 7.01351 43.6144 7.08616 43.247 7.2358C42.8795 7.38545 42.5467 7.60891 42.269 7.89235L42.2685 7.89286C41.8454 8.31875 41.5574 8.86005 41.4406 9.44892C41.3237 10.0378 41.3833 10.6481 41.6118 11.2032C41.8402 11.7584 42.2275 12.2338 42.725 12.5699C43.2225 12.9059 43.808 13.0877 44.4084 13.0924L44.4112 13.0924C44.8058 13.1064 45.1989 13.0372 45.5649 12.8891C45.9309 12.7411 46.2616 12.5175 46.5355 12.2331C46.78 11.9778 46.9702 11.6754 47.0943 11.3443C47.2185 11.0132 47.2741 10.6603 47.2577 10.307L47.3576 10.3024L47.2576 10.3023C47.2576 10.1852 47.2493 10.0682 47.2325 9.95237H44.5076V10.4724H46.6809L46.6775 10.5756C46.6619 11.0531 46.4751 11.5091 46.1511 11.8602L46.1472 11.8644C45.7978 12.2021 45.3561 12.4287 44.8781 12.5157C44.4 12.6028 43.9068 12.5463 43.4608 12.3534C43.0148 12.1605 42.6359 11.8398 42.372 11.4319C42.1084 11.0246 41.9712 10.5484 41.9776 10.0634C41.9667 9.73858 42.0213 9.41489 42.1383 9.11164C42.2555 8.80763 42.4329 8.53043 42.6599 8.29666C42.8868 8.06288 43.1587 7.87734 43.4591 7.75116C43.7586 7.62537 44.0803 7.56117 44.4051 7.56236C44.7293 7.54511 45.0531 7.60325 45.351 7.73224C45.6166 7.84719 45.8551 8.01561 46.052 8.22657L46.4396 7.83891C46.2049 7.58943 45.9186 7.39353 45.6002 7.26511L45.5982 7.26433C45.2221 7.10336 44.8171 7.02101 44.4079 7.02237L44.4054 7.02235ZM47.4576 10.3001C47.4749 10.6796 47.415 11.0587 47.2816 11.4145C47.1479 11.771 46.9432 12.0966 46.6798 12.3715C46.3865 12.6763 46.032 12.9159 45.6399 13.0745C45.2483 13.233 44.8277 13.3072 44.4054 13.2924C43.7662 13.2871 43.1427 13.0934 42.613 12.7356C42.0829 12.3775 41.6703 11.8709 41.4268 11.2793C41.1834 10.6878 41.1199 10.0375 41.2444 9.41C41.3689 8.78263 41.6757 8.20593 42.1264 7.75214C42.4231 7.44927 42.7789 7.2105 43.1716 7.05058C43.564 6.89077 43.985 6.81311 44.4085 6.82237C44.8442 6.82109 45.2754 6.90877 45.676 7.08003C46.0521 7.23191 46.3869 7.47066 46.6531 7.77676L46.7143 7.84714L46.0412 8.52018L45.9711 8.43672C45.7814 8.21119 45.542 8.03284 45.2716 7.91578C45.0012 7.79872 44.7073 7.74615 44.4131 7.76223L44.4071 7.76255C44.1082 7.76108 43.8121 7.81981 43.5365 7.93556C43.261 8.05131 43.0116 8.22151 42.8034 8.43597C42.5952 8.65043 42.4324 8.90472 42.3249 9.1836C42.2173 9.46248 42.1672 9.76021 42.1775 10.0589L42.1777 10.0638C42.1714 10.5102 42.2974 10.9484 42.5399 11.3232C42.7824 11.698 43.1305 11.9926 43.5402 12.1698C43.95 12.3471 44.403 12.399 44.8422 12.319C45.2805 12.2392 45.6854 12.0316 46.006 11.7225C46.2729 11.4324 46.4359 11.0631 46.4713 10.6724H44.3076V9.75237H47.4012L47.416 9.8347C47.4436 9.98829 47.4575 10.144 47.4576 10.3001ZM48.3376 6.96237H52.0376V7.90237H49.3376V9.60237H51.7976V10.5224H49.3376V12.2224H52.0376V13.1624H48.3376V6.96237ZM48.5376 7.16237V12.9624H51.8376V12.4224H49.1376V10.3224H51.5976V9.80237H49.1376V7.70237H51.8376V7.16237H48.5376ZM52.6676 6.96237H57.0376V7.90237H55.3176V13.1624H54.3476V7.90237H52.6676V6.96237ZM52.8676 7.16237V7.70237H54.5476V12.9624H55.1176V7.70237H56.8376V7.16237H52.8676ZM59.7776 6.96237H60.7476V13.1624H59.7776V6.96237ZM59.9776 7.16237V12.9624H60.5476V7.16237H59.9776ZM61.5176 6.96237H65.8376V7.90237H64.1676V13.1624H63.1976V7.90237H61.5176V6.96237ZM61.7176 7.16237V7.70237H63.3976V12.9624H63.9676V7.70237H65.6376V7.16237H61.7176ZM75.4176 6.96237H76.513L79.2776 11.3838V6.96237H80.2476V13.1624H79.2921L76.3976 8.52166V13.1624H75.4176V6.96237ZM75.6176 7.16237V12.9624H76.1976V7.82309L79.4031 12.9624H80.0476V7.16237H79.4776V12.0809L76.4022 7.16237H75.6176ZM69.647 8.27152C70.0987 7.82173 70.7102 7.5692 71.3476 7.5692C71.985 7.5692 72.5965 7.82173 73.0482 8.27152L73.0518 8.2751C73.4957 8.76448 73.7415 9.40165 73.7415 10.0624C73.7415 10.7231 73.4956 11.3602 73.0517 11.8496L73.0483 11.8533C72.5966 12.3031 71.985 12.5555 71.3476 12.5555C70.7102 12.5555 70.0987 12.303 69.647 11.8532L69.7176 11.7824L69.6435 11.8496C69.1996 11.3602 68.9537 10.7231 68.9537 10.0624C68.9537 9.40165 69.1996 8.76457 69.6435 8.27519L69.647 8.27152ZM69.79 11.7133C70.204 12.1246 70.7639 12.3555 71.3476 12.3555C71.9313 12.3555 72.4912 12.1246 72.9052 11.7133C73.3147 11.261 73.5415 10.6726 73.5415 10.0624C73.5415 9.45217 73.3147 8.86377 72.9052 8.41143C72.4912 8.0001 71.9313 7.7692 71.3476 7.7692C70.7639 7.7692 70.204 8.0001 69.79 8.41143C69.3805 8.86377 69.1537 9.45217 69.1537 10.0624C69.1537 10.6726 69.3805 11.261 69.79 11.7133Z" fill="white"/>
<path d="M10.4399 7.54022C10.114 7.93132 9.94945 8.43201 9.9799 8.94022V31.0602C9.94945 31.5684 10.114 32.0691 10.4399 32.4602L10.5099 32.5302L22.8999 20.1502V19.8602L10.5099 7.47021L10.4399 7.54022Z" fill="url(#paint0_linear_4_46251)"/>
<path d="M26.9999 24.2802L22.8999 20.1502V19.8602L26.9999 15.7202L27.0899 15.7702L31.9999 18.5602C33.3999 19.3502 33.3999 20.6502 31.9999 21.4502L27.1099 24.2302L26.9999 24.2802Z" fill="url(#paint1_linear_4_46251)"/>
<path d="M27.1199 24.22L22.8999 20L10.4399 32.46C10.7253 32.7109 11.0893 32.8541 11.4691 32.8651C11.8489 32.876 12.2206 32.754 12.5199 32.52L27.1299 24.22" fill="url(#paint2_linear_4_46251)"/>
<path d="M27.1199 15.78L12.5099 7.48005C12.2106 7.24606 11.8389 7.124 11.4591 7.13496C11.0793 7.14591 10.7153 7.2892 10.4299 7.54005L22.8999 20L27.1199 15.78Z" fill="url(#paint3_linear_4_46251)"/>
<path opacity="0.2" d="M26.9999 24.1299L12.5099 32.3799C12.2212 32.5957 11.8704 32.7124 11.5099 32.7124C11.1495 32.7124 10.7987 32.5957 10.5099 32.3799L10.4399 32.4499L10.5099 32.5199C10.798 32.7373 11.1491 32.8549 11.5099 32.8549C11.8708 32.8549 12.2219 32.7373 12.5099 32.5199L27.1199 24.2199L26.9999 24.1299Z" fill="#1C1C1E"/>
<path opacity="0.12" d="M10.4399 32.32C10.114 31.9289 9.94945 31.4282 9.9799 30.92V31.07C9.94945 31.5782 10.114 32.0789 10.4399 32.47L10.5099 32.4L10.4399 32.32ZM31.9999 21.3L26.9999 24.13L27.0899 24.22L31.9999 21.44C32.2785 21.3091 32.5177 21.1071 32.6932 20.8543C32.8688 20.6014 32.9746 20.3068 32.9999 20C32.9437 20.2787 32.8243 20.5408 32.6509 20.7662C32.4776 20.9915 32.2549 21.1742 31.9999 21.3Z" fill="#1C1C1E"/>
<path opacity="0.25" d="M12.5099 7.61945L31.9999 18.6995C32.2549 18.8253 32.4776 19.0079 32.6509 19.2333C32.8243 19.4586 32.9437 19.7207 32.9999 19.9994C32.9746 19.6927 32.8688 19.398 32.6932 19.1452C32.5177 18.8924 32.2785 18.6903 31.9999 18.5594L12.5099 7.47945C11.1099 6.68945 9.96991 7.34945 9.96991 8.94945V9.09945C9.99991 7.48945 11.1199 6.82945 12.5099 7.61945Z" fill="white"/>
<defs>
<linearGradient id="paint0_linear_4_46251" x1="21.7999" y1="8.71022" x2="5.0199" y2="25.4902" gradientUnits="userSpaceOnUse">
<stop stop-color="#00A0FF"/>
<stop offset="0.01" stop-color="#00A1FF"/>
<stop offset="0.26" stop-color="#00BEFF"/>
<stop offset="0.51" stop-color="#00D2FF"/>
<stop offset="0.76" stop-color="#00DFFF"/>
<stop offset="1" stop-color="#00E3FF"/>
</linearGradient>
<linearGradient id="paint1_linear_4_46251" x1="33.8299" y1="20.0002" x2="9.63991" y2="20.0002" gradientUnits="userSpaceOnUse">
<stop stop-color="#FFE000"/>
<stop offset="0.41" stop-color="#FFBD00"/>
<stop offset="0.78" stop-color="#FFA500"/>
<stop offset="1" stop-color="#FF9C00"/>
</linearGradient>
<linearGradient id="paint2_linear_4_46251" x1="24.8299" y1="22.3" x2="2.06994" y2="45.05" gradientUnits="userSpaceOnUse">
<stop stop-color="#FF3A44"/>
<stop offset="1" stop-color="#C31162"/>
</linearGradient>
<linearGradient id="paint3_linear_4_46251" x1="7.29993" y1="0.180049" x2="17.4599" y2="10.34" gradientUnits="userSpaceOnUse">
<stop stop-color="#32A071"/>
<stop offset="0.07" stop-color="#2DA771"/>
<stop offset="0.48" stop-color="#15CF74"/>
<stop offset="0.8" stop-color="#06E775"/>
<stop offset="1" stop-color="#00F076"/>
</linearGradient>
</defs>
</svg>
