<svg width="41" height="30" viewBox="0 0 41 30" fill="none" xmlns="http://www.w3.org/2000/svg">
<path fill-rule="evenodd" clip-rule="evenodd" d="M20.7275 10.73C21.2725 11.7996 21.2725 13.1997 21.2725 16V18.6988C21.2725 18.9785 21.2725 19.1183 21.2669 19.2364C21.1449 21.812 19.0845 23.8725 16.5089 23.9944C16.3907 24 16.2348 24 15.9228 24L15.8428 24.0001C14.8225 24.0066 13.8287 24.3251 12.9947 24.9128L12.9417 24.9506L10.3309 26.8154C9.43596 27.4546 8.25989 26.5314 8.66836 25.5103C8.95771 24.7869 8.42497 24 7.64587 24H7.04412C4.96109 24 3.27246 22.3114 3.27246 20.2283V16C3.27246 13.1997 3.27246 11.7996 3.81743 10.73C4.2968 9.78924 5.0617 9.02433 6.00251 8.54497C7.07207 8 8.4722 8 11.2725 8H13.2725C16.0727 8 17.4729 8 18.5424 8.54497C19.4832 9.02433 20.2481 9.78924 20.7275 10.73ZM12.2725 14.75L16.2725 14.75C16.6867 14.75 17.0225 14.4142 17.0225 14C17.0225 13.5858 16.6867 13.25 16.2725 13.25L12.2725 13.25C11.8582 13.25 11.5225 13.5858 11.5225 14C11.5225 14.4142 11.8582 14.75 12.2725 14.75ZM8.27246 17.25C7.85825 17.25 7.52246 17.5858 7.52246 18C7.52246 18.4142 7.85825 18.75 8.27246 18.75H16.2725C16.6867 18.75 17.0225 18.4142 17.0225 18C17.0225 17.5858 16.6867 17.25 16.2725 17.25H8.27246Z" fill="#9CA1AA"/>
<rect x="12.2725" width="27.7895" height="14.8947" rx="7.44737" fill="#EF4444"/>
<path d="M19.3314 9.94727H18.5357V5.01042H19.3314V7.10306H22.2346V5.01042H23.023V9.94727H22.2346V7.81779H19.3314V9.94727ZM25.6091 10.0209C24.408 10.0209 23.6196 9.34306 23.6196 8.1199C23.6196 6.97779 24.4006 6.21148 25.5943 6.21148C26.7291 6.21148 27.5027 6.83779 27.5027 7.95042C27.5027 8.08305 27.4954 8.18621 27.4733 8.29674H24.3638C24.3933 9.00411 24.7396 9.3799 25.5869 9.3799C26.3533 9.3799 26.6701 9.12937 26.6701 8.69463V8.63569H27.4659V8.702C27.4659 9.48306 26.6996 10.0209 25.6091 10.0209ZM25.5796 6.83779C24.7691 6.83779 24.4154 7.19884 24.3712 7.85463H26.7512V7.8399C26.7512 7.162 26.3606 6.83779 25.5796 6.83779ZM28.8946 9.94727H28.0988V5.01042H28.8946V9.94727ZM30.4273 11.1999H29.6315V6.28516H30.3609V7.302H30.4273C30.5746 6.62411 31.0904 6.21148 31.9525 6.21148C33.0873 6.21148 33.7283 6.98516 33.7283 8.1199C33.7283 9.25463 33.102 10.0209 31.9599 10.0209C31.1346 10.0209 30.6041 9.58621 30.4567 8.91569H30.4273V11.1999ZM30.4273 8.17884C30.4273 8.93042 30.9062 9.29884 31.6873 9.29884C32.4757 9.29884 32.9325 8.99674 32.9325 8.1199C32.9325 7.23569 32.4683 6.94095 31.702 6.94095C30.8841 6.94095 30.4273 7.32411 30.4273 8.11253V8.17884Z" fill="white"/>
</svg>
