<svg width="16" height="16" viewBox="0 0 16 16" fill="none" xmlns="http://www.w3.org/2000/svg">
<path d="M11.6606 2.25894C9.60208 3.0829 7.40461 3.50426 5.18733 3.50019H4.62483C3.63689 3.49877 2.6845 3.86878 1.95665 4.53682C1.2288 5.20486 0.778681 6.12211 0.695597 7.10656C0.612513 8.091 0.90254 9.07071 1.50813 9.85129C2.11372 10.6319 2.99062 11.1563 3.96483 11.3204C4.2131 12.3365 4.55922 13.3261 4.99833 14.2754C5.34633 15.0284 6.25383 15.2654 6.93483 14.8724L7.42758 14.5882C8.08758 14.2072 8.30133 13.3934 8.00658 12.7372C7.82942 12.3436 7.67222 11.9414 7.53558 11.5319C8.97408 11.7254 10.3556 12.0944 11.6606 12.6164C12.2182 10.9469 12.5016 9.19794 12.4998 7.43769C12.4998 5.62719 12.2051 3.88644 11.6606 2.25894ZM12.6948 1.80519C13.3125 3.61875 13.6268 5.52182 13.6248 7.43769C13.6269 9.48228 13.269 11.5113 12.5673 13.4317C12.5419 13.5011 12.5304 13.5748 12.5335 13.6486C12.5366 13.7225 12.5542 13.795 12.5853 13.862C12.6164 13.929 12.6604 13.9893 12.7147 14.0393C12.7691 14.0893 12.8328 14.1282 12.9022 14.1536C12.9716 14.179 13.0453 14.1905 13.1191 14.1874C13.193 14.1843 13.2655 14.1667 13.3325 14.1356C13.3995 14.1045 13.4598 14.0605 13.5098 14.0062C13.5598 13.9518 13.5987 13.8881 13.6241 13.8187C14.1927 12.2661 14.5497 10.644 14.6853 8.99619C15.0882 8.57747 15.313 8.01878 15.3123 7.43769C15.3123 6.83244 15.0731 6.28269 14.6853 5.87919C14.5488 4.23147 14.1919 2.60951 13.6241 1.05669C13.5987 0.987305 13.5598 0.923602 13.5098 0.869221C13.4598 0.81484 13.3995 0.770846 13.3325 0.739749C13.1971 0.676948 13.0423 0.670498 12.9022 0.721817C12.7621 0.773137 12.6481 0.878022 12.5853 1.0134C12.5225 1.14878 12.516 1.30356 12.5673 1.44369C12.6116 1.56369 12.6543 1.68369 12.6948 1.80519Z" fill="#9CA1AA"/>
</svg>
