<svg width="25" height="25" viewBox="0 0 25 25" fill="none" xmlns="http://www.w3.org/2000/svg">
<path d="M11.1619 1.75C7.76631 1.75 5.13913 4.72603 5.5603 8.09536L5.63965 8.73021C5.75577 9.65916 5.41644 10.5871 4.72843 11.2219C3.30275 12.5375 2.90666 14.6315 3.75331 16.3769L3.85666 16.59C4.64583 18.2169 6.29513 19.25 8.10336 19.25H16.3242C17.8839 19.25 19.3355 18.4532 20.173 17.1373C21.3551 15.2799 21.042 12.8432 19.4287 11.345L19.3848 11.3042C18.6463 10.6183 18.2827 9.61912 18.4077 8.61901L18.4723 8.10208C18.8939 4.72918 16.2639 1.75 12.8648 1.75H11.1619Z" fill="#9CA1AA"/>
<path d="M9.84528 21.05C9.59675 20.7186 9.12665 20.6515 8.79528 20.9C8.46391 21.1485 8.39676 21.6186 8.64528 21.95L8.94528 22.35C10.5953 24.55 13.8953 24.55 15.5453 22.35L15.8453 21.95C16.0938 21.6186 16.0267 21.1485 15.6953 20.9C15.3639 20.6515 14.8938 20.7186 14.6453 21.05L14.3453 21.45C13.2953 22.85 11.1953 22.85 10.1453 21.45L9.84528 21.05Z" fill="#9CA1AA"/>
</svg>
