<svg width="15" height="15" viewBox="0 0 15 15" fill="none" xmlns="http://www.w3.org/2000/svg">
<path fill-rule="evenodd" clip-rule="evenodd" d="M10.8036 2.31883C10.9349 2.32758 11.0661 2.3375 11.1962 2.348C12.0945 2.42383 12.7502 3.18567 12.7502 4.06358V9.68808C12.7502 10.1522 12.5658 10.5973 12.2376 10.9255C11.9095 11.2537 11.4643 11.4381 11.0002 11.4381V10.125C11.0002 6.6705 8.33087 3.83958 4.94287 3.58175C5.13187 2.92142 5.7012 2.40925 6.4292 2.34858C6.55987 2.3375 6.69054 2.32758 6.82179 2.31883C6.96945 2.03433 7.19241 1.79586 7.46635 1.62942C7.74028 1.46298 8.05467 1.37497 8.3752 1.375H9.2502C9.57074 1.37497 9.88513 1.46298 10.1591 1.62942C10.433 1.79586 10.656 2.03433 10.8036 2.31883ZM7.5002 3.125C7.5002 2.89294 7.59239 2.67038 7.75649 2.50628C7.92058 2.34219 8.14314 2.25 8.3752 2.25H9.2502C9.48227 2.25 9.70483 2.34219 9.86892 2.50628C10.033 2.67038 10.1252 2.89294 10.1252 3.125H7.5002Z" fill="#6B7280"/>
<path d="M2.25 5.53125C2.25 4.92692 2.74 4.4375 3.34375 4.4375H3.5625C4.14266 4.4375 4.69906 4.66797 5.1093 5.0782C5.51953 5.48844 5.75 6.04484 5.75 6.625V7.71875C5.75 8.32308 6.24 8.8125 6.84375 8.8125H7.9375C8.22477 8.8125 8.50922 8.86908 8.77462 8.97901C9.04002 9.08895 9.28117 9.25008 9.4843 9.4532C9.68742 9.65633 9.84855 9.89748 9.95849 10.1629C10.0684 10.4283 10.125 10.7127 10.125 11V12.5312C10.125 13.135 9.635 13.625 9.03125 13.625H3.34375C3.05367 13.625 2.77547 13.5098 2.57035 13.3046C2.36523 13.0995 2.25 12.8213 2.25 12.5312V5.53125Z" fill="#6B7280"/>
<path d="M6.62499 6.62524C6.62601 5.88939 6.36104 5.17797 5.87891 4.62207C6.85499 4.87872 7.7454 5.39001 8.45906 6.10367C9.17271 6.81733 9.68401 7.70773 9.94066 8.68382C9.38476 8.20169 8.67334 7.93672 7.93749 7.93774H6.84374C6.78572 7.93774 6.73008 7.91469 6.68906 7.87367C6.64804 7.83264 6.62499 7.777 6.62499 7.71899V6.62524Z" fill="#6B7280"/>
</svg>
