<svg width="20" height="16" viewBox="0 0 20 16" fill="none" xmlns="http://www.w3.org/2000/svg">
<path fill-rule="evenodd" clip-rule="evenodd" d="M0 12.4473V3.55908L6.61784 8.0032L0 12.4473Z" fill="#000001"/>
<path fill-rule="evenodd" clip-rule="evenodd" d="M4.51465 15.5027L11.944 10.5049H22.4962V15.4998H4.51465V15.5027Z" fill="#000C8A"/>
<path fill-rule="evenodd" clip-rule="evenodd" d="M4.03906 0.500366H22.4952V5.50403H11.94C11.94 5.50403 4.13574 0.450563 4.03906 0.500366Z" fill="#E1392D"/>
<path fill-rule="evenodd" clip-rule="evenodd" d="M-1.87661e-07 2.37549V3.55902L6.61784 8.00021L-0.00292969 12.4473V13.6279L8.33162 8.00314L-1.87661e-07 2.37549Z" fill="#FFB915"/>
<path fill-rule="evenodd" clip-rule="evenodd" d="M0 2.3754V0.500488H2.78307L11.6069 6.47676H22.4989V9.52935H11.6069L2.78014 15.4998H0V13.6278L8.33162 8.00305L0.0029295 2.3754H0Z" fill="#007847"/>
<path fill-rule="evenodd" clip-rule="evenodd" d="M2.78027 0.500488H4.51456L11.9439 5.50122H22.4961V6.47676H11.607L2.78027 0.500488ZM2.78027 15.5027H4.51456L11.9439 10.5049H22.4961V9.53227H11.607L2.78027 15.4998V15.5027Z" fill="white"/>
</svg>
