<svg width="14" height="16" viewBox="0 0 14 16" fill="none" xmlns="http://www.w3.org/2000/svg">
<path fill-rule="evenodd" clip-rule="evenodd" d="M3.62532 3.5C3.62532 2.60489 3.9809 1.74645 4.61383 1.11351C5.24677 0.480579 6.10521 0.125 7.00032 0.125C7.89542 0.125 8.75387 0.480579 9.3868 1.11351C10.0197 1.74645 10.3753 2.60489 10.3753 3.5C10.3753 4.39511 10.0197 5.25355 9.3868 5.88649C8.75387 6.51942 7.89542 6.875 7.00032 6.875C6.10521 6.875 5.24677 6.51942 4.61383 5.88649C3.9809 5.25355 3.62532 4.39511 3.62532 3.5ZM0.813566 14.0787C0.838856 12.4546 1.5018 10.9055 2.65929 9.76593C3.81678 8.62633 5.37597 7.98759 7.00032 7.98759C8.62466 7.98759 10.1839 8.62633 11.3413 9.76593C12.4988 10.9055 13.1618 12.4546 13.1871 14.0787C13.189 14.1881 13.1591 14.2956 13.1008 14.3882C13.0426 14.4808 12.9587 14.5544 12.8593 14.6C11.0212 15.4428 9.02244 15.8777 7.00032 15.875C4.91082 15.875 2.92557 15.419 1.14132 14.6C1.04193 14.5544 0.957998 14.4808 0.899788 14.3882C0.841578 14.2956 0.811615 14.1881 0.813566 14.0787Z" fill="#9CA1AA"/>
</svg>
