<svg width="9" height="8" viewBox="0 0 9 8" fill="none" xmlns="http://www.w3.org/2000/svg">
<path fill-rule="evenodd" clip-rule="evenodd" d="M4.42048 0.151197C4.37382 0.103343 4.31806 0.065312 4.25647 0.0393448C4.19489 0.0133777 4.12873 0 4.06189 0C3.99505 0 3.92889 0.0133777 3.86731 0.0393448C3.80573 0.065312 3.74996 0.103343 3.7033 0.151197L3.38378 0.479235C3.32089 0.543851 3.24172 0.59029 3.15463 0.61365C3.06754 0.637009 2.97575 0.636423 2.88897 0.611952L2.44825 0.487749C2.38392 0.469646 2.31662 0.464601 2.25031 0.472911C2.184 0.48122 2.12002 0.502717 2.06215 0.536134C2.00428 0.569551 1.95368 0.614212 1.91333 0.667487C1.87299 0.720762 1.84371 0.781572 1.82723 0.846336L1.71405 1.29006C1.69185 1.37741 1.6465 1.45716 1.58278 1.52089C1.51905 1.58461 1.4393 1.62997 1.35195 1.65216L0.908225 1.76484C0.843462 1.78132 0.782651 1.8106 0.729376 1.85094C0.676102 1.89129 0.63144 1.94189 0.598024 1.99976C0.564607 2.05763 0.54311 2.12161 0.5348 2.18792C0.526491 2.25423 0.531536 2.32153 0.549638 2.38586L0.673842 2.82708C0.698312 2.91387 0.698899 3.00565 0.67554 3.09274C0.65218 3.17983 0.605741 3.259 0.541124 3.32189L0.213087 3.64141C0.165233 3.68807 0.127202 3.74384 0.101234 3.80542C0.0752674 3.86701 0.0618896 3.93316 0.0618896 4C0.0618896 4.06684 0.0752674 4.133 0.101234 4.19458C0.127202 4.25617 0.165233 4.31193 0.213087 4.35859L0.541124 4.67861C0.605653 4.74146 0.652039 4.82054 0.675396 4.90753C0.698753 4.99453 0.698216 5.08621 0.673842 5.17292L0.549638 5.61364C0.531536 5.67797 0.526491 5.74527 0.5348 5.81158C0.54311 5.87789 0.564607 5.94187 0.598024 5.99974C0.63144 6.05761 0.676102 6.10821 0.729376 6.14856C0.782651 6.1889 0.843462 6.21818 0.908225 6.23466L1.35195 6.34785C1.4393 6.37004 1.51905 6.41539 1.58278 6.47911C1.6465 6.54284 1.69185 6.62259 1.71405 6.70994L1.82673 7.15366C1.84316 7.21847 1.87239 7.27934 1.91271 7.33267C1.95303 7.386 2.00363 7.43072 2.06151 7.46418C2.11938 7.49765 2.18338 7.51919 2.24971 7.52753C2.31605 7.53587 2.38338 7.53085 2.44775 7.51275L2.88897 7.38855C2.97571 7.36402 3.06747 7.36335 3.15455 7.38662C3.24164 7.40989 3.32084 7.45624 3.38378 7.52077L3.7033 7.8488C3.74996 7.89666 3.80573 7.93469 3.86731 7.96066C3.92889 7.98662 3.99505 8 4.06189 8C4.12873 8 4.19489 7.98662 4.25647 7.96066C4.31806 7.93469 4.37382 7.89666 4.42048 7.8488L4.7405 7.52077C4.8034 7.45632 4.88251 7.41003 4.9695 7.38676C5.05649 7.3635 5.14814 7.36411 5.23481 7.38855L5.67553 7.51275C5.7399 7.53085 5.80723 7.53587 5.87356 7.52753C5.9399 7.51919 6.00389 7.49765 6.06177 7.46418C6.11965 7.43072 6.17024 7.386 6.21057 7.33267C6.25089 7.27934 6.28012 7.21847 6.29655 7.15366L6.40973 6.70994C6.43192 6.62259 6.47728 6.54284 6.541 6.47911C6.60473 6.41539 6.68448 6.37004 6.77183 6.34785L7.21555 6.23516C7.28036 6.21874 7.34123 6.1895 7.39456 6.14918C7.44789 6.10886 7.49261 6.05826 7.52607 6.00038C7.55954 5.94251 7.58108 5.87851 7.58942 5.81218C7.59776 5.74584 7.59274 5.67851 7.57464 5.61414L7.45044 5.17342C7.42591 5.08668 7.42524 4.99493 7.44851 4.90784C7.47178 4.82075 7.51813 4.74155 7.58266 4.67861L7.91069 4.35859C7.95855 4.31193 7.99658 4.25617 8.02255 4.19458C8.04851 4.133 8.06189 4.06684 8.06189 4C8.06189 3.93316 8.04851 3.86701 8.02255 3.80542C7.99658 3.74384 7.95855 3.68807 7.91069 3.64141L7.58266 3.32189C7.51813 3.25895 7.47178 3.17975 7.44851 3.09266C7.42524 3.00558 7.42591 2.91382 7.45044 2.82708L7.57464 2.38636C7.59274 2.322 7.59776 2.25466 7.58942 2.18833C7.58108 2.12199 7.55954 2.058 7.52607 2.00012C7.49261 1.94224 7.44789 1.89165 7.39456 1.85132C7.34123 1.811 7.28036 1.78177 7.21555 1.76534L6.77183 1.65216C6.68448 1.62997 6.60473 1.58461 6.541 1.52089C6.47728 1.45716 6.43192 1.37741 6.40973 1.29006L6.29705 0.846336C6.28057 0.781572 6.25129 0.720762 6.21095 0.667487C6.1706 0.614212 6.12 0.569551 6.06213 0.536134C6.00426 0.502717 5.94028 0.48122 5.87397 0.472911C5.80766 0.464601 5.74036 0.469646 5.67603 0.487749L5.23531 0.611952C5.14845 0.63652 5.05657 0.637156 4.96938 0.613794C4.88219 0.590432 4.80294 0.543939 4.74 0.479235L4.42048 0.151197ZM5.95148 3.1436C6.02321 3.0744 6.06451 2.97953 6.06629 2.87988C6.06808 2.78023 6.0302 2.68395 5.961 2.61223C5.8918 2.5405 5.79694 2.4992 5.69729 2.49742C5.59763 2.49564 5.50136 2.53351 5.42963 2.60271L3.35924 4.60199L2.69966 3.94341C2.62906 3.87301 2.53339 3.83354 2.43369 3.83368C2.334 3.83382 2.23844 3.87356 2.16804 3.94416C2.09764 4.01476 2.05817 4.11043 2.05831 4.21012C2.05845 4.30982 2.09819 4.40538 2.16879 4.47578L3.0898 5.39428C3.15935 5.46378 3.25339 5.50323 3.35171 5.50417C3.45003 5.5051 3.54479 5.46745 3.61566 5.39929L5.95148 3.1436Z" fill="url(#paint0_linear_4_43448)"/>
<defs>
<linearGradient id="paint0_linear_4_43448" x1="8.06189" y1="8" x2="-1.59131" y2="3.79666" gradientUnits="userSpaceOnUse">
<stop stop-color="#00A084"/>
<stop offset="1" stop-color="#00DEB6"/>
</linearGradient>
</defs>
</svg>
